<?xml version="1.0" standalone="no"?>
<!DOCTYPE svg PUBLIC "-//W3C//DTD SVG 20010904//EN"
 "http://www.w3.org/TR/2001/REC-SVG-20010904/DTD/svg10.dtd">
<svg version="1.0" xmlns="http://www.w3.org/2000/svg"
 width="574.000000pt" height="570.000000pt" viewBox="0 0 574.000000 570.000000"
 preserveAspectRatio="xMidYMid meet">

<g transform="translate(0.000000,570.000000) scale(0.100000,-0.100000)"
fill="#000000" stroke="none">
<path d="M2685 5624 c-228 -22 -346 -42 -515 -84 -505 -127 -963 -391 -1332
-769 -213 -217 -353 -412 -490 -677 -139 -270 -231 -556 -279 -865 -33 -208
-33 -580 0 -788 73 -472 245 -885 530 -1269 114 -153 389 -432 534 -540 409
-307 834 -485 1339 -564 208 -32 608 -32 818 1 522 80 976 277 1385 600 104
82 316 292 411 407 337 409 533 862 616 1429 17 117 17 528 0 655 -69 511
-244 941 -546 1345 -121 161 -384 424 -542 542 -416 309 -852 488 -1361 558
-104 15 -485 27 -568 19z m111 -86 c7 -8 -1 -9 -68 -11 -20 -1 -34 -5 -32 -9
3 -5 -2 -8 -11 -8 -9 0 -28 -8 -43 -17 -27 -17 -27 -17 -12 2 14 20 14 20 -7
1 -13 -10 -20 -23 -16 -29 3 -5 1 -7 -5 -3 -6 3 -13 2 -17 -4 -4 -6 -11 -7
-17 -4 -6 4 -8 2 -5 -4 10 -15 -3 -43 -16 -35 -6 3 -7 1 -3 -5 4 -7 2 -12 -3
-12 -6 0 -11 -7 -11 -15 0 -8 -5 -15 -12 -15 -6 0 -8 -3 -5 -7 4 -3 2 -12 -4
-19 -25 -31 -30 -184 -6 -221 5 -7 10 -23 12 -35 3 -12 11 -26 20 -30 8 -5 15
-16 15 -23 0 -8 7 -15 15 -15 9 0 12 -6 8 -17 -3 -10 -3 -15 2 -11 4 4 23 -4
43 -17 19 -13 39 -22 44 -19 4 3 8 -2 8 -10 0 -8 5 -18 12 -22 7 -4 8 -3 4 4
-8 13 28 12 40 0 3 -4 13 -4 22 -1 8 4 13 2 10 -3 -4 -5 10 -8 30 -6 51 4 53
4 92 -2 25 -4 31 -3 20 4 -13 8 -13 10 2 10 10 0 33 9 53 20 36 20 63 28 35
10 -8 -5 -10 -10 -5 -10 6 0 23 14 39 30 16 16 33 27 39 23 6 -3 7 -1 3 5 -4
7 -1 12 8 12 9 0 16 5 16 11 0 5 -6 7 -12 3 -10 -5 -10 -4 -1 6 10 11 15 11
30 -1 16 -13 17 -12 4 4 -10 13 -11 20 -2 30 6 8 8 17 4 20 -3 4 0 7 7 7 7 0
10 3 7 7 -4 3 -1 13 5 21 17 20 18 150 1 189 -7 18 -10 33 -6 33 4 0 -2 7 -13
16 -10 8 -12 12 -4 8 13 -7 13 -5 2 9 -8 9 -11 21 -7 26 3 7 0 8 -9 5 -10 -4
-16 -1 -16 9 0 9 -5 19 -12 23 -7 5 -8 2 -3 -7 4 -8 -1 -5 -12 6 -11 11 -19
23 -17 27 3 4 -1 10 -7 14 -8 4 -9 3 -5 -4 13 -22 -11 -12 -28 11 -9 12 -14
15 -10 7 7 -13 6 -13 -10 -1 -18 15 -94 32 -139 31 -17 0 -26 4 -22 10 9 14
208 12 217 -3 4 -7 8 -8 8 -2 0 11 139 4 190 -9 14 -4 45 -9 70 -12 63 -7 129
-18 227 -38 7 -1 15 -5 19 -8 3 -4 12 -4 20 -1 8 3 14 0 14 -7 0 -6 -3 -9 -7
-7 -5 3 -17 -7 -27 -21 -11 -14 -14 -22 -8 -18 8 5 10 2 6 -8 -3 -9 -9 -14
-13 -12 -4 3 -8 -9 -9 -26 -1 -17 -8 -40 -14 -52 -13 -22 -15 -28 -17 -50 0
-8 -8 -22 -17 -30 -8 -9 -11 -16 -5 -16 6 0 8 -6 5 -14 -3 -8 0 -17 7 -22 8
-4 10 -3 5 4 -4 7 -3 12 3 12 5 0 13 -5 16 -10 4 -6 11 -8 16 -5 5 4 9 2 9 -3
0 -6 7 -13 16 -16 8 -3 12 -2 9 4 -4 6 6 7 26 3 27 -5 31 -3 26 9 -3 9 1 25 8
36 8 10 12 22 9 25 -3 3 -1 8 4 11 5 3 14 -6 20 -19 10 -21 8 -28 -11 -46 -12
-12 -16 -18 -8 -14 9 5 12 3 9 -6 -3 -8 -10 -13 -16 -12 -6 2 -9 -7 -7 -19 3
-11 1 -26 -3 -32 -3 -6 -7 -17 -8 -24 -2 -8 -11 -23 -21 -35 -10 -11 -13 -17
-6 -14 8 5 8 1 0 -18 -11 -23 -13 -23 -24 -8 -8 10 -13 12 -13 4 0 -7 -4 -10
-9 -7 -5 3 -14 -8 -21 -24 -7 -17 -16 -30 -21 -30 -5 0 -9 -5 -9 -11 0 -5 5
-7 11 -3 14 8 1 -38 -13 -47 -11 -7 11 -49 25 -49 4 0 5 -6 1 -12 -6 -10 -5
-10 8 -1 8 7 17 10 20 8 3 -3 15 -8 27 -10 12 -2 36 -11 53 -20 17 -8 38 -15
47 -15 14 0 14 -2 1 -11 -12 -8 -10 -9 7 -4 12 3 24 1 27 -4 4 -6 14 -7 23 -4
12 5 14 3 8 -7 -5 -9 -4 -11 3 -6 6 4 20 2 31 -3 14 -8 22 -7 31 4 6 7 19 11
28 8 13 -4 14 -3 3 5 -9 6 -11 17 -5 33 4 13 7 27 6 32 -1 4 2 7 6 7 12 0 12
42 0 57 -5 7 -14 11 -18 8 -11 -7 -7 15 7 40 11 20 13 27 13 46 0 5 4 8 9 5 4
-3 7 6 5 19 -1 14 2 27 7 31 5 3 7 10 4 15 -4 5 -1 9 5 9 6 0 9 3 7 8 -7 12
12 54 22 48 5 -4 7 4 3 16 -5 20 -3 21 11 10 17 -14 15 -45 -4 -68 -13 -16 4
-44 26 -44 8 0 15 -5 17 -10 2 -6 12 -12 23 -14 11 -2 27 -7 36 -11 13 -5 20
3 30 32 7 21 13 41 14 45 0 13 15 21 15 8 0 -7 3 -10 6 -7 4 4 1 13 -6 22 -8
10 -9 15 -1 15 6 0 10 3 10 8 -3 18 2 32 17 46 8 9 11 16 5 16 -6 0 -2 15 8
33 16 30 48 45 44 22 -1 -6 8 -12 20 -12 12 -1 23 -7 25 -13 2 -5 8 -8 13 -4
12 7 51 -21 42 -30 -4 -4 1 -4 11 0 13 5 17 4 12 -4 -5 -8 -2 -10 8 -6 9 4 18
-1 22 -10 3 -9 12 -16 20 -16 8 0 14 -5 14 -12 0 -6 3 -8 7 -5 3 4 12 -1 20
-11 8 -9 12 -11 8 -4 -4 8 4 6 22 -5 57 -36 75 -52 69 -62 -4 -5 -1 -13 5 -17
8 -5 9 -3 4 6 -5 8 -3 11 6 8 8 -3 20 -15 26 -29 11 -21 13 -22 13 -4 0 12 3
16 8 9 4 -6 25 -23 47 -38 22 -16 32 -26 22 -22 -11 3 -16 2 -12 -4 3 -6 13
-10 22 -10 19 0 74 -45 88 -74 7 -11 17 -20 25 -18 7 1 38 -22 70 -53 32 -30
57 -55 55 -55 -2 0 18 -21 45 -47 34 -33 46 -50 37 -55 -12 -8 -12 -8 26 -12
6 0 12 -6 12 -13 0 -6 20 -30 45 -52 24 -22 41 -43 37 -47 -4 -4 9 -22 28 -41
19 -19 35 -36 35 -38 0 -2 14 -19 31 -37 16 -18 38 -49 47 -68 9 -19 20 -39
24 -45 5 -5 17 -21 28 -34 11 -13 17 -27 15 -32 -3 -4 -1 -10 5 -14 5 -3 10
-11 10 -17 0 -6 -7 -5 -17 3 -16 13 -17 12 -5 -3 8 -10 20 -14 29 -11 13 5 15
2 10 -11 -4 -10 -3 -15 3 -11 11 7 32 -29 23 -39 -3 -3 -1 -6 5 -6 6 0 9 -6 6
-14 -3 -8 4 -24 15 -35 26 -26 52 -77 44 -85 -4 -3 -1 -6 6 -6 9 0 12 -9 9
-24 -4 -19 -1 -23 10 -18 11 4 14 1 9 -12 -4 -9 -3 -15 2 -12 5 3 12 -1 15
-10 3 -8 2 -12 -4 -9 -14 9 -12 -1 3 -17 13 -14 54 -116 63 -157 3 -13 11 -36
19 -51 8 -15 12 -30 9 -33 -3 -3 -2 -12 2 -19 14 -22 32 -78 23 -73 -4 3 -1
-7 6 -23 8 -15 16 -38 18 -50 2 -12 6 -25 10 -28 11 -11 8 -26 -3 -19 -5 3 -3
-10 5 -29 9 -20 18 -55 20 -78 3 -24 10 -60 16 -81 5 -20 8 -41 5 -46 -3 -4
-1 -23 5 -42 13 -46 20 -502 8 -576 -5 -32 -12 -85 -15 -118 -3 -33 -12 -75
-20 -93 -7 -18 -9 -30 -4 -27 5 3 4 -9 -1 -27 -6 -18 -12 -44 -15 -58 -3 -14
-9 -26 -14 -28 -5 -2 -7 -16 -4 -31 3 -16 0 -39 -7 -52 -7 -13 -16 -42 -21
-64 -5 -22 -10 -44 -11 -50 -24 -75 -31 -95 -38 -95 -4 0 -10 -7 -13 -16 -3
-8 -2 -12 4 -9 5 3 5 -7 -1 -25 -6 -16 -14 -28 -17 -26 -4 2 -8 -7 -8 -21 -1
-13 -10 -33 -20 -44 -9 -10 -15 -22 -11 -25 3 -3 -8 -34 -26 -68 -30 -60 -57
-97 -57 -78 0 5 7 15 15 22 15 12 17 120 3 120 -5 0 -8 6 -8 14 0 8 -15 27
-34 44 -19 17 -32 34 -28 38 4 4 1 4 -6 0 -7 -5 -21 -2 -30 6 -9 8 -30 20 -45
28 -16 8 -37 27 -48 42 -27 37 -74 59 -104 48 -12 -5 -25 -6 -28 -4 -3 3 -8 0
-12 -6 -3 -6 -3 -9 2 -8 14 5 82 -42 85 -59 2 -8 37 -34 78 -58 119 -67 143
-121 96 -220 -42 -91 -111 -126 -190 -95 -14 5 -26 7 -26 5 0 -12 60 -27 123
-31 54 -3 69 -1 73 11 3 8 10 12 15 9 5 -3 9 0 9 6 0 7 7 9 16 6 8 -3 12 -2 9
4 -7 11 23 60 37 60 5 0 0 -9 -11 -21 -11 -12 -17 -27 -15 -34 3 -7 -1 -19 -8
-26 -8 -8 -17 -21 -21 -29 -23 -46 -35 -61 -39 -49 -3 8 -7 4 -10 -9 -4 -15
-2 -20 5 -16 7 3 2 -3 -9 -13 -30 -25 -64 -80 -44 -69 8 4 6 0 -4 -8 -11 -9
-16 -16 -10 -16 5 0 1 -5 -8 -11 -10 -5 -18 -15 -18 -20 0 -17 -71 -99 -81
-93 -5 3 -6 -1 -3 -9 3 -9 -15 -34 -45 -64 -28 -28 -51 -55 -51 -61 0 -5 -7
-13 -16 -16 -8 -3 -12 -11 -9 -16 4 -6 1 -9 -7 -8 -7 2 -12 -3 -11 -9 2 -7 -3
-13 -10 -13 -8 0 -19 -12 -26 -26 -8 -18 -17 -24 -27 -20 -12 4 -15 2 -10 -9
3 -9 0 -15 -9 -15 -8 0 -14 -3 -14 -7 3 -20 -2 -24 -16 -13 -8 7 -12 16 -9 21
3 5 -2 6 -10 3 -14 -5 -14 -8 0 -21 11 -12 12 -18 4 -23 -6 -4 -11 -11 -10
-16 1 -5 -7 -13 -17 -19 -10 -5 -27 -20 -38 -32 -22 -25 -40 -31 -30 -11 4 7
-1 4 -10 -7 -35 -44 -77 -85 -87 -85 -6 0 -5 7 3 17 13 16 12 17 -3 4 -10 -7
-15 -17 -13 -22 6 -9 -82 -72 -102 -72 -7 0 -11 -3 -8 -5 2 -3 -7 -16 -21 -29
-19 -17 -30 -21 -37 -14 -6 6 -16 11 -21 11 -6 0 -4 -5 4 -10 12 -8 12 -10 1
-10 -8 0 -11 -3 -8 -7 9 -8 -24 -32 -44 -33 -9 0 -24 -9 -34 -20 -10 -12 -25
-18 -32 -16 -7 3 -13 -2 -13 -11 0 -9 -3 -13 -7 -10 -3 4 -21 -3 -39 -14 -19
-11 -38 -18 -44 -14 -5 3 -7 0 -4 -9 6 -16 -20 -28 -74 -34 -7 -1 -11 -6 -7
-11 5 -9 -23 -23 -36 -18 -4 1 -17 -7 -30 -18 -22 -19 -22 -19 -15 -1 6 18 6
19 -11 4 -10 -9 -40 -26 -68 -38 -27 -12 -66 -29 -85 -38 -19 -9 -43 -15 -52
-14 -10 0 -18 -3 -18 -9 0 -5 -3 -8 -7 -7 -5 1 -35 -7 -68 -17 -33 -11 -62
-19 -65 -20 -3 0 -10 -4 -16 -7 -6 -4 -32 -10 -58 -13 -25 -3 -73 -14 -106
-25 -36 -11 -78 -18 -102 -16 -23 3 -36 1 -29 -3 9 -6 3 -10 -17 -13 -18 -2
-28 0 -25 5 3 5 -5 3 -18 -4 -32 -17 -228 -26 -449 -22 -102 3 -201 4 -220 4
-26 -1 -31 1 -20 9 13 8 13 10 -2 10 -10 0 -18 -5 -18 -11 0 -5 -4 -8 -8 -5
-5 3 -25 6 -45 8 -20 1 -33 6 -30 11 3 5 -5 8 -18 7 -13 -1 -26 -1 -29 0 -3 1
-25 4 -50 5 -25 1 -67 10 -93 19 -26 9 -54 16 -62 16 -8 0 -15 6 -15 13 0 9
-2 9 -8 0 -4 -7 -17 -10 -30 -6 -12 3 -20 8 -18 12 2 3 -8 7 -22 8 -38 4 -55
8 -67 14 -13 8 -64 20 -70 17 -2 -2 -11 6 -20 17 -9 11 -14 14 -10 8 9 -18
-10 -16 -29 2 -8 9 -22 12 -32 8 -13 -5 -15 -3 -9 7 6 10 4 12 -8 7 -9 -3 -28
3 -43 16 -16 12 -25 16 -20 9 4 -7 -7 -4 -25 7 -18 11 -36 18 -41 15 -4 -3 -8
0 -8 6 0 6 -4 9 -9 6 -5 -4 -11 -2 -13 3 -1 6 -16 12 -32 15 -16 3 -33 11 -37
18 -5 7 -14 14 -21 14 -30 3 -97 38 -91 47 4 7 0 8 -11 4 -13 -5 -17 -3 -13 7
4 10 0 12 -14 9 -13 -4 -19 0 -19 11 0 10 -4 14 -10 11 -5 -3 -25 5 -43 19
-19 14 -36 24 -39 21 -3 -3 -22 11 -42 30 -39 36 -53 44 -40 23 5 -7 -6 1 -24
17 -18 17 -35 30 -40 30 -14 0 -81 57 -79 68 1 6 -5 12 -13 13 -8 0 -20 2 -26
2 -6 1 -24 20 -39 41 -15 22 -32 38 -39 35 -7 -2 -25 11 -40 31 -16 19 -33 32
-40 28 -6 -3 -8 -3 -4 1 8 10 -14 36 -25 29 -4 -2 -7 0 -7 6 0 9 -83 97 -98
103 -4 2 -6 6 -5 9 1 3 -18 27 -43 53 -24 26 -41 53 -37 58 3 7 1 8 -5 4 -7
-4 -12 -2 -12 4 0 6 -4 9 -9 5 -9 -5 -27 32 -23 48 1 5 -1 7 -5 4 -5 -2 -24
14 -43 37 -19 22 -29 36 -21 31 8 -5 1 8 -15 28 -16 20 -32 37 -36 37 -3 0 -5
11 -3 25 2 22 0 23 -13 13 -13 -10 -14 -10 -8 0 4 7 1 15 -8 18 -9 3 -13 10
-10 15 3 5 1 9 -5 9 -6 0 -8 7 -5 15 4 9 0 15 -8 15 -12 0 -47 53 -36 56 1 0
-3 8 -11 17 -7 10 -10 17 -5 17 5 0 1 5 -8 10 -21 13 -50 69 -41 83 3 5 2 7
-4 4 -10 -6 -43 53 -43 78 0 7 -6 20 -13 27 -11 11 -26 38 -32 58 -1 3 -9 23
-19 45 -10 22 -18 50 -18 62 0 13 -5 20 -11 16 -6 -4 -8 0 -4 10 3 10 3 17 -1
17 -11 0 -64 166 -66 207 -1 11 -4 19 -8 16 -7 -4 -12 34 -11 75 1 6 -4 12 -9
12 -5 0 -8 6 -5 13 2 6 -2 29 -9 50 -7 20 -13 40 -13 42 1 3 -3 24 -7 48 -4
23 -8 60 -10 82 -2 22 -8 87 -13 145 -9 109 -7 428 3 515 10 79 16 119 21 135
4 13 8 33 19 103 1 9 8 23 14 29 15 15 16 32 2 23 -13 -8 -13 8 0 21 9 9 14
36 19 94 1 12 3 12 9 2 6 -8 9 -2 9 18 0 16 5 40 11 53 8 18 19 53 26 87 11
48 31 98 38 94 5 -3 8 0 7 7 -4 21 11 60 32 83 22 22 25 41 7 30 -7 -4 -4 2 6
14 11 12 16 22 12 22 -9 0 33 81 56 106 10 12 18 25 17 30 -4 21 2 35 11 29 6
-4 10 5 10 19 0 14 4 26 9 26 5 0 11 9 14 20 3 11 10 20 17 20 6 0 8 -6 4 -12
-4 -7 -3 -9 2 -5 4 4 9 20 10 35 2 41 3 44 14 37 6 -3 10 1 10 10 0 24 84 145
97 140 7 -2 12 -1 11 3 -3 14 16 47 41 70 14 13 20 20 12 16 -9 -5 -12 -3 -7
4 4 7 14 12 22 12 8 0 12 5 9 10 -6 9 8 14 28 11 5 -1 6 3 2 9 -3 6 -12 7 -18
4 -7 -4 -3 2 8 13 11 11 23 19 28 16 7 -4 11 12 8 30 -1 5 3 6 9 2 5 -3 10 0
10 8 0 8 16 28 36 43 19 16 44 43 56 62 18 29 46 40 41 15 -1 -5 5 -10 13 -10
12 0 12 3 -1 17 -13 15 -11 20 22 51 21 19 29 23 18 10 l-20 -24 22 14 c13 8
23 21 23 31 0 21 50 57 70 51 11 -3 12 -2 2 4 -9 7 -5 15 15 33 16 12 39 32
53 44 17 15 20 16 11 3 -11 -14 -12 -20 -2 -30 10 -9 11 -8 6 4 -4 11 5 28 26
48 29 30 33 31 49 16 12 -11 20 -13 25 -5 3 6 1 9 -6 8 -7 -2 -15 6 -17 16 -3
14 0 17 13 13 9 -4 14 -3 10 3 -3 6 1 10 9 10 9 0 16 5 16 11 0 5 4 8 9 4 6
-3 14 3 20 12 9 16 10 16 11 -4 0 -12 -6 -24 -12 -27 -7 -3 -4 -4 6 -3 15 1
24 -9 35 -38 8 -22 23 -48 32 -58 16 -18 18 -18 43 -2 22 15 29 15 43 4 14
-12 16 -12 8 0 -6 11 -4 13 11 7 33 -14 79 -26 115 -30 19 -2 37 -4 42 -5 12
-2 1 -44 -20 -79 -11 -18 -23 -29 -28 -24 -5 4 -5 2 -1 -5 4 -7 -1 -27 -11
-45 -9 -18 -16 -36 -15 -40 1 -5 -3 -9 -8 -9 -6 -1 -15 -2 -21 -3 -19 -2 -33
-32 -24 -52 4 -11 7 -22 7 -26 -1 -5 3 -8 9 -8 5 0 8 -4 4 -9 -3 -5 2 -17 11
-25 8 -9 13 -16 9 -16 -3 0 -1 -9 5 -20 11 -20 11 -20 40 2 24 18 32 19 45 8
13 -11 15 -10 9 3 -4 12 2 18 23 23 15 4 38 14 50 21 12 8 27 12 33 8 5 -3 10
1 10 9 0 8 5 18 12 22 7 4 8 3 4 -4 -5 -8 -2 -10 8 -6 9 3 16 9 16 13 0 3 9
12 21 19 12 8 19 10 16 5 -3 -5 3 -9 13 -9 10 0 16 5 14 11 -3 6 3 19 12 30 8
11 13 15 10 8 -4 -6 -1 -15 6 -19 7 -4 10 -4 6 1 -4 4 -3 14 3 21 8 10 6 12
-11 9 -13 -3 -23 2 -27 13 -4 9 -11 20 -15 23 -5 3 -10 13 -12 21 -3 23 -33
51 -38 36 -3 -8 -7 -8 -11 -2 -12 21 18 59 49 62 31 3 54 -20 33 -33 -5 -4 -2
-17 9 -33 35 -51 38 -59 16 -42 -10 8 -6 0 11 -17 23 -24 34 -29 47 -22 14 8
16 6 12 -8 -3 -10 2 -7 10 7 8 14 16 21 16 15 0 -7 3 -7 8 0 4 6 18 16 31 23
19 11 22 11 15 0 -10 -16 26 10 43 32 6 8 15 12 18 8 4 -4 14 0 22 8 8 8 19
12 24 9 5 -4 9 -1 9 4 0 6 11 11 25 11 14 0 28 6 31 14 3 8 12 12 19 10 7 -3
16 0 21 7 5 8 3 10 -6 4 -9 -6 -11 -4 -6 4 5 7 14 10 21 7 20 -7 25 19 9 43
-8 12 -13 25 -10 30 3 4 -3 16 -14 26 -11 10 -20 23 -20 29 0 6 5 4 10 -4 7
-11 10 -12 10 -2 0 8 -9 16 -20 19 -11 3 -18 9 -15 12 2 4 -2 8 -10 8 -8 0
-12 -4 -9 -9 3 -4 -2 -9 -10 -9 -59 -5 -82 -4 -92 3 -6 4 -24 9 -40 11 -17 2
-34 6 -39 9 -6 3 -27 8 -48 12 -29 5 -37 11 -33 22 3 9 6 20 6 25 0 6 4 7 10
4 6 -4 7 1 3 11 -5 13 -3 15 7 9 10 -6 12 -4 7 8 -3 10 -3 17 1 17 5 0 13 15
20 33 7 19 23 37 41 45 16 7 37 25 46 39 9 14 12 23 7 19 -13 -8 -34 28 -24
39 4 5 1 4 -7 0 -11 -6 -13 -4 -8 8 3 9 2 19 -4 23 -6 3 -8 12 -5 20 3 7 0 16
-6 20 -7 5 -8 2 -3 -7 8 -12 6 -12 -8 -1 -9 8 -22 10 -28 6 -7 -4 -9 -3 -6 3
4 6 26 13 49 17 23 4 48 12 55 18 8 6 16 8 20 5 3 -3 19 1 35 9 17 9 32 13 35
10 3 -2 16 -1 30 5 37 14 166 39 171 34 3 -3 -3 -5 -13 -5 -10 0 -15 -3 -12
-7 4 -3 17 -2 30 4 29 14 160 37 215 38 23 0 42 2 42 5 0 8 128 6 136 -2z
m164 -55 c98 -44 160 -143 159 -253 0 -114 -45 -193 -141 -246 -50 -27 -60
-29 -163 -29 -94 0 -116 3 -151 22 -98 52 -145 124 -152 230 -9 134 62 239
191 285 68 24 193 20 257 -9z m723 -48 c20 -3 37 -10 37 -15 0 -5 7 -7 15 -4
8 4 15 1 15 -5 0 -7 6 -11 13 -10 12 2 23 -1 87 -29 19 -8 39 -14 44 -13 4 1
14 -3 20 -9 7 -5 16 -7 19 -3 4 3 7 1 7 -6 0 -7 5 -9 10 -6 6 3 10 1 10 -5 0
-6 5 -8 12 -4 7 5 8 3 3 -6 -5 -9 -2 -10 11 -6 11 3 29 -3 44 -14 14 -11 21
-20 15 -20 -15 0 -98 30 -111 41 -6 5 -19 10 -30 12 -10 2 -30 8 -44 14 -44
18 -95 35 -107 36 -7 0 -13 4 -13 7 0 4 -14 10 -31 14 -21 4 -28 10 -23 18 6
9 3 9 -9 -1 -12 -9 -17 -10 -17 -2 0 7 -4 9 -10 6 -5 -3 -20 4 -32 15 l-23 22
25 -11 c14 -5 42 -12 63 -16z m184 -116 c129 -48 194 -78 198 -89 3 -10 -9
-54 -26 -99 -27 -71 -34 -81 -56 -81 -13 0 -33 5 -43 10 -18 10 -18 13 -5 51
8 23 15 43 15 44 0 9 -63 26 -69 19 -11 -12 -101 -252 -101 -269 0 -7 7 -15
15 -19 8 -3 15 -12 15 -20 0 -25 -33 -86 -47 -86 -14 0 -251 85 -259 93 -3 2
4 26 14 53 14 40 22 49 42 49 22 0 29 12 72 125 26 69 47 132 48 141 0 14 -56
48 -63 38 -1 -2 -10 -21 -20 -41 -18 -41 -39 -48 -74 -23 l-22 15 25 72 c13
39 31 82 39 94 14 22 16 23 62 9 27 -8 134 -47 240 -86z m-1893 69 c-3 -4 -9
-8 -15 -8 -5 0 -9 4 -9 8 0 5 7 9 15 9 8 0 12 -4 9 -9z m-44 -16 c-8 -3 -31
-15 -51 -28 -20 -13 -39 -21 -41 -18 -3 2 -11 -2 -18 -11 -17 -21 -35 -19 -19
3 7 9 -2 2 -21 -16 -18 -18 -39 -31 -46 -28 -10 4 -11 -1 -4 -18 5 -13 6 -27
3 -30 -3 -3 2 -8 11 -12 9 -3 13 -10 10 -16 -3 -5 8 -22 24 -38 23 -21 27 -31
18 -41 -8 -9 -8 -10 2 -4 11 6 12 3 3 -13 -9 -17 -26 -21 -51 -12 -3 1 -9 2
-14 1 -5 -1 -4 5 3 13 10 12 9 20 -4 40 -10 14 -14 26 -9 26 4 0 0 6 -11 13
-10 8 -15 19 -11 25 3 6 2 13 -4 17 -6 4 -8 10 -6 14 3 4 -5 6 -17 5 -12 -1
-26 -3 -30 -3 -5 -1 -5 -5 -2 -11 5 -9 -1 -12 -21 -9 -4 0 -10 -4 -14 -10 -7
-13 -40 -4 -40 10 0 5 13 12 30 15 17 4 27 11 23 17 -3 5 -1 7 5 3 5 -3 12 -2
14 4 2 6 14 12 27 15 12 2 29 9 37 15 7 7 18 9 24 5 5 -3 13 1 16 9 3 9 10 13
15 10 5 -3 9 -1 9 5 0 5 15 13 33 16 17 4 37 12 44 17 7 5 17 7 23 3 5 -3 10
-1 10 5 0 6 4 9 9 6 5 -3 14 1 21 9 7 8 17 12 23 8 7 -4 6 -8 -3 -11z m93 -6
c8 -8 20 -29 27 -47 13 -29 12 -33 -8 -50 -12 -9 -27 -19 -32 -21 -14 -4 -89
-182 -81 -190 14 -15 246 -65 267 -57 26 9 37 2 58 -39 11 -22 14 -38 7 -50
-10 -18 -269 -152 -295 -152 -9 0 -25 18 -36 40 -20 39 -20 39 0 50 11 6 20
14 20 19 0 7 -106 41 -129 41 -5 0 -17 -24 -27 -52 -9 -29 -19 -59 -22 -67 -4
-10 2 -12 26 -6 27 6 33 3 47 -25 9 -17 14 -39 11 -48 -6 -17 -224 -132 -251
-132 -16 0 -44 37 -50 68 -2 12 6 29 19 41 25 24 122 218 113 227 -14 14 -215
55 -244 49 -21 -4 -36 -1 -47 10 -19 20 -30 59 -23 80 7 17 258 145 287 145
13 0 26 -13 40 -39 20 -40 20 -40 0 -46 -11 -4 -20 -10 -20 -15 0 -9 91 -40
115 -40 10 0 45 86 45 110 0 4 -10 5 -23 3 -18 -4 -26 3 -39 29 -11 24 -13 39
-6 51 8 15 209 125 230 126 4 1 13 -5 21 -13z m2051 -92 c3 -8 2 -12 -4 -9 -6
3 -10 10 -10 16 0 14 7 11 14 -7z m36 -14 c0 -5 -2 -10 -4 -10 -3 0 -8 5 -11
10 -3 6 -1 10 4 10 6 0 11 -4 11 -10z m-2541 -54 c11 -13 -3 -22 -41 -30 -4 0
-16 -9 -28 -18 -19 -17 -24 -15 -21 5 1 5 -3 6 -9 2 -6 -3 -8 -10 -5 -15 7
-11 -22 -33 -35 -25 -5 3 -13 -1 -16 -9 -3 -9 -13 -16 -22 -16 -12 0 -10 6 8
25 13 14 29 25 36 25 6 0 17 7 24 15 8 9 21 13 32 9 12 -4 18 -1 16 8 -2 7 4
12 14 10 9 -1 20 3 24 9 5 8 3 9 -6 4 -9 -5 -11 -4 -6 3 10 16 21 15 35 -2z
m-209 -121 c-7 -9 -15 -13 -18 -10 -3 2 1 11 8 20 7 9 15 13 18 10 3 -2 -1
-11 -8 -20z m3350 -215 c0 -5 -2 -10 -4 -10 -3 0 -8 5 -11 10 -3 6 -1 10 4 10
6 0 11 -4 11 -10z m371 -387 c13 -16 12 -17 -3 -4 -17 13 -22 21 -14 21 2 0
10 -8 17 -17z"/>
<path d="M4417 5079 c7 -9 10 -19 6 -22 -3 -4 -1 -7 5 -7 17 0 15 16 -5 31
-16 12 -17 12 -6 -2z"/>
<path d="M4393 4995 c-24 -24 -43 -48 -43 -55 0 -6 -5 -8 -11 -4 -8 4 -8 0 0
-15 7 -11 16 -21 20 -21 5 0 7 -9 4 -20 -5 -18 -14 -24 -34 -22 -3 1 -5 -9 -5
-21 1 -13 -5 -22 -14 -22 -8 0 -16 -6 -16 -12 -1 -7 -2 -18 -3 -24 0 -5 -5 -8
-10 -4 -5 3 -12 -4 -16 -15 -3 -11 -11 -20 -16 -20 -6 0 -8 -3 -6 -7 2 -5 -6
-18 -18 -31 -21 -22 -23 -23 -40 -6 -13 13 -21 15 -34 7 -9 -6 -17 -15 -17
-22 -1 -6 -2 -16 -3 -22 0 -5 -6 -7 -13 -3 -7 5 -8 3 -3 -6 6 -10 4 -12 -9 -7
-14 5 -17 3 -13 -8 4 -8 2 -17 -3 -20 -13 -8 -13 -45 -1 -45 5 0 13 -9 16 -20
3 -11 13 -20 20 -20 8 0 25 -9 37 -21 13 -11 51 -43 86 -71 34 -27 60 -54 56
-59 -3 -5 6 -9 20 -9 14 0 28 5 32 12 5 7 3 8 -7 3 -8 -5 -2 3 14 18 15 14 27
31 27 37 0 5 3 9 8 8 4 -2 9 2 10 7 7 21 25 35 36 28 7 -4 7 -1 -1 8 -10 12
-10 18 0 30 10 12 10 12 -3 1 -20 -17 -31 -15 -23 5 5 12 3 14 -7 8 -9 -6 -11
-4 -5 4 4 7 16 10 27 8 16 -5 17 -3 7 10 -11 12 -10 17 2 24 9 4 28 26 44 48
15 23 31 38 36 35 5 -3 9 2 9 11 0 10 5 13 13 9 6 -4 9 -4 5 1 -12 13 11 45
27 39 8 -4 15 -10 15 -16 0 -5 -6 -6 -12 -2 -8 5 -8 1 2 -12 22 -29 23 -30 18
-14 -5 17 68 94 82 85 5 -3 7 0 4 8 -3 8 2 21 10 30 14 13 13 17 -7 40 -12 13
-31 30 -42 36 -14 9 -15 11 -3 7 10 -3 20 -2 22 3 5 7 -9 11 -47 12 -10 0 -16
6 -14 12 3 7 11 11 18 9 8 -2 10 0 6 4 -11 11 -38 14 -31 3 9 -16 -10 -9 -36
12 -14 11 -19 17 -11 13 9 -5 12 -3 7 4 -4 7 -13 12 -19 12 -7 0 -30 16 -52
35 -22 19 -42 34 -45 34 -3 -1 -24 -20 -47 -44z m167 -76 c64 -51 100 -87 100
-100 0 -10 -13 -33 -29 -51 -26 -28 -33 -31 -49 -21 -17 10 -26 3 -79 -60
-134 -162 -135 -163 -118 -177 8 -7 15 -16 15 -20 0 -19 -54 -70 -73 -70 -24
0 -191 129 -207 160 -12 23 -4 44 32 77 17 16 28 19 38 13 8 -5 18 -10 21 -10
5 0 130 149 182 218 7 8 5 18 -6 30 -15 17 -14 21 14 55 17 20 37 37 44 37 8
0 59 -36 115 -81z"/>
<path d="M1363 4925 c0 -8 4 -12 9 -9 5 3 6 10 3 15 -9 13 -12 11 -12 -6z"/>
<path d="M2615 4850 c-149 -26 -311 -66 -329 -82 -6 -4 -19 -8 -30 -8 -11 0
-27 -7 -37 -16 -10 -9 -33 -17 -51 -17 -18 -1 -42 -10 -52 -19 -11 -10 -25
-18 -32 -18 -13 0 -109 -49 -174 -88 -19 -11 -47 -27 -61 -35 -111 -60 -415
-327 -498 -437 -14 -19 -29 -37 -32 -40 -3 -3 -14 -19 -24 -37 -10 -18 -22
-30 -27 -27 -5 3 -7 2 -6 -3 2 -5 -20 -45 -48 -88 -44 -68 -138 -251 -164
-320 -4 -11 -12 -31 -18 -45 -9 -21 -29 -82 -39 -115 -21 -76 -46 -182 -54
-230 -6 -33 -13 -71 -15 -85 -3 -14 -8 -115 -11 -225 -4 -200 -2 -225 38 -455
6 -30 11 -62 11 -70 0 -8 4 -19 8 -25 5 -5 11 -28 15 -50 4 -22 11 -44 15 -50
9 -12 60 -154 62 -172 1 -7 5 -13 10 -13 4 0 8 -5 8 -11 0 -26 154 -309 179
-329 21 -17 69 -95 64 -104 -3 -6 -3 -8 2 -4 7 7 64 -49 65 -64 0 -10 58 -66
64 -61 2 2 7 -4 10 -14 4 -10 22 -29 41 -43 19 -14 32 -31 30 -38 -3 -7 0 -10
6 -6 6 3 31 -16 57 -42 26 -27 50 -48 54 -47 4 2 23 -12 42 -31 20 -18 38 -30
42 -27 3 3 4 -3 2 -14 -2 -14 3 -20 17 -19 11 0 50 -20 88 -43 37 -24 72 -43
77 -43 6 0 13 -7 16 -15 4 -8 10 -13 14 -10 5 3 14 -1 22 -8 13 -14 21 -17 39
-17 5 0 7 -4 4 -10 -3 -5 0 -11 7 -11 30 -3 76 -19 112 -40 10 -6 26 -12 35
-14 9 -2 34 -11 56 -21 22 -10 46 -17 54 -15 8 1 10 -2 5 -10 -4 -7 -3 -10 3
-6 5 3 32 -1 59 -9 93 -29 159 -46 194 -49 19 -2 64 -8 100 -15 72 -13 451
-20 490 -9 14 4 48 10 75 13 28 3 61 7 75 10 14 3 49 8 78 11 30 3 66 12 80
19 25 13 103 38 127 42 6 0 23 6 38 13 16 6 33 8 39 5 7 -4 8 -2 4 4 -4 7 -4
12 1 13 4 0 17 3 28 5 11 3 28 5 38 5 9 0 15 4 12 10 -6 8 8 13 28 10 4 0 7 3
7 7 0 13 50 33 62 26 6 -4 8 -2 5 3 -4 6 0 14 9 17 10 4 13 2 9 -7 -4 -6 1 -3
9 7 9 11 16 16 16 11 0 -5 10 0 23 11 32 28 83 54 91 47 3 -3 6 -2 6 4 0 11
55 49 93 65 9 4 17 12 17 18 0 5 7 10 15 10 8 0 15 5 15 10 0 6 7 10 16 10 8
0 12 5 9 10 -3 5 1 10 9 10 8 0 36 20 62 45 25 25 50 45 56 45 5 0 7 4 4 9 -6
9 22 26 37 22 5 -1 6 2 3 7 -6 10 65 77 77 74 5 -1 6 2 3 6 -7 12 28 44 38 35
4 -4 5 -1 2 7 -4 9 12 34 39 63 25 26 45 51 46 55 3 14 63 92 71 92 5 0 7 4 4
9 -3 5 5 20 19 35 13 15 24 27 24 29 -2 11 23 57 31 57 6 0 9 4 5 9 -3 6 3 14
12 20 10 6 15 11 11 11 -4 0 8 33 26 72 19 40 44 96 56 123 13 28 22 53 22 58
-1 4 3 7 9 7 6 0 9 6 6 13 -3 7 8 53 24 102 16 49 29 102 29 117 0 15 4 29 9
32 5 3 11 29 14 58 3 29 10 82 16 118 5 36 11 99 12 140 2 41 7 80 12 87 5 7
5 18 1 25 -8 12 -17 120 -18 218 -1 25 -4 47 -8 50 -3 3 -9 28 -13 55 -8 70
-12 88 -18 105 -21 53 -37 144 -28 153 6 6 11 15 11 21 0 5 -7 1 -16 -10 -15
-19 -15 -18 -11 4 3 12 2 20 -2 17 -4 -2 -16 22 -25 53 -10 31 -45 111 -77
177 -33 66 -57 125 -55 132 3 7 1 15 -4 18 -6 4 -10 0 -10 -7 -1 -7 -8 0 -16
15 -25 45 -12 41 41 -15 27 -28 41 -49 31 -45 -10 4 -15 3 -11 -4 4 -5 15 -7
25 -4 11 3 20 0 24 -10 3 -9 11 -13 16 -10 6 4 16 2 23 -3 16 -13 123 -12 152
2 16 7 23 17 20 27 -3 9 -7 37 -10 63 -3 26 -10 56 -15 67 -6 11 -8 24 -5 29
6 10 -22 3 -40 -10 -8 -6 -31 -6 -89 -1 -5 1 -6 4 -3 8 4 3 -2 13 -13 20 -15
11 -19 22 -15 45 8 42 8 42 67 82 29 19 61 33 74 31 13 -1 21 2 18 6 -5 9 -2
10 29 13 7 0 28 -11 46 -26 18 -16 27 -28 20 -28 -10 0 -10 -3 -1 -12 9 -9 8
-16 -6 -32 -13 -14 -13 -18 -2 -12 8 4 5 -1 -7 -11 -19 -16 -20 -20 -8 -37 8
-10 12 -23 9 -27 -3 -5 0 -9 6 -9 6 0 9 -4 5 -9 -3 -6 4 -19 16 -30 12 -11 18
-24 14 -32 -5 -7 -4 -10 3 -5 6 3 15 -2 21 -11 6 -10 11 -13 11 -6 0 7 7 10
17 6 11 -4 14 -3 9 5 -6 11 5 17 27 13 4 0 7 4 7 10 0 5 5 7 10 4 6 -3 10 -2
10 3 0 5 14 16 32 23 56 23 86 67 57 85 -6 3 -9 14 -6 24 3 13 0 17 -9 13 -8
-3 -16 5 -20 21 -6 25 -13 29 -44 27 -9 0 -10 2 -3 5 8 3 9 13 4 27 -5 12 -8
34 -7 50 1 15 -1 27 -4 27 -3 0 -14 12 -24 27 -11 14 -14 23 -8 19 18 -11 14
10 -5 25 -14 12 -16 12 -8 0 5 -10 4 -12 -4 -7 -9 6 -9 11 1 24 7 9 8 13 2 9
-11 -6 -69 57 -69 75 0 3 -3 9 -7 13 -9 9 -5 -16 5 -32 14 -23 -11 -14 -27 9
-14 20 -25 22 -116 24 -60 2 -100 -1 -100 -7 0 -6 -4 -8 -9 -4 -5 3 -12 1 -16
-5 -4 -6 -10 -8 -15 -5 -4 3 -29 -11 -54 -30 -25 -19 -46 -32 -46 -29 0 8 -31
-24 -31 -33 0 -4 -6 -15 -14 -23 -7 -8 -16 -26 -20 -39 -6 -19 -9 -21 -17 -10
-8 11 -8 10 -4 -4 3 -10 1 -28 -6 -40 -15 -28 -19 -49 -7 -41 13 8 11 -10 -3
-25 -11 -11 -10 -12 2 -6 12 6 13 5 3 -6 -7 -7 -13 -20 -13 -29 0 -13 2 -13
11 0 9 12 10 11 6 -8 -3 -14 -1 -20 6 -15 6 4 8 0 4 -9 -3 -9 1 -26 10 -37 8
-12 12 -25 9 -28 -3 -4 1 -18 11 -32 l16 -26 -21 19 c-12 11 -22 25 -22 33 0
7 -13 27 -30 45 -16 17 -30 35 -30 39 0 4 -10 19 -23 33 -12 14 -38 44 -57 68
-19 23 -73 80 -119 127 -47 47 -85 91 -85 96 -1 6 -5 10 -11 11 -17 1 -65 27
-65 35 0 4 -15 17 -33 28 -18 11 -44 30 -57 42 -37 32 -99 72 -156 101 -27 15
-68 36 -90 49 -21 12 -86 41 -143 64 -90 36 -101 44 -85 53 10 6 14 12 9 12
-6 0 -16 -5 -22 -11 -7 -7 -30 -4 -79 11 -116 36 -193 53 -335 75 -141 21
-440 18 -574 -5z m542 -79 c26 -6 91 -17 143 -26 204 -35 503 -159 685 -283
146 -100 296 -232 401 -352 182 -209 326 -482 400 -755 40 -147 50 -220 68
-528 l4 -79 -41 6 c-154 22 -276 27 -359 17 -76 -10 -95 -9 -139 5 -48 16 -56
16 -152 -2 -129 -23 -175 -22 -262 5 -75 23 -220 29 -285 12 -19 -6 -54 -15
-76 -20 -57 -15 -70 -48 -67 -166 2 -49 4 -99 6 -110 4 -20 14 -20 663 -25
l659 -5 -1 -25 c-2 -27 -29 -132 -43 -165 -4 -11 -14 -38 -21 -60 -30 -95
-121 -282 -193 -395 -68 -106 -134 -188 -244 -300 l-73 -75 -310 -4 -310 -3 0
41 c0 23 7 106 16 184 24 217 14 291 -63 477 -39 94 -81 238 -87 302 -2 18 -6
40 -9 48 -13 37 -15 175 -3 204 19 46 12 161 -13 227 -24 62 -60 102 -129 140
-30 16 -51 36 -57 54 -11 30 -10 31 65 78 44 28 101 137 107 205 5 59 -26 116
-77 143 -51 28 -177 25 -250 -5 -48 -19 -56 -26 -62 -57 -13 -69 -45 -142 -70
-164 -24 -20 -25 -27 -18 -60 5 -21 7 -43 5 -49 -17 -55 -15 -66 10 -76 28
-10 34 -30 10 -30 -25 0 -88 -36 -112 -64 -18 -20 -32 -26 -63 -26 -40 0 -171
-57 -185 -80 -21 -34 -75 12 -147 127 -51 81 -71 122 -89 183 -14 48 -28 75
-70 130 -14 19 -34 62 -44 95 -9 33 -30 98 -45 145 -15 47 -36 112 -46 145 -9
33 -21 64 -26 70 -4 5 -8 17 -8 27 0 10 -4 26 -9 36 -18 36 -41 93 -41 102 0
10 -29 80 -58 138 -18 35 -44 39 -50 8 -2 -10 1 -28 6 -40 6 -11 23 -55 37
-96 15 -41 31 -84 36 -95 5 -11 27 -76 50 -145 23 -69 47 -141 54 -160 7 -19
21 -62 31 -95 9 -33 21 -65 26 -72 8 -10 17 -78 18 -138 0 -11 9 -27 19 -35
21 -17 53 -97 76 -190 9 -36 21 -73 26 -82 5 -10 9 -25 9 -33 0 -8 4 -23 9
-33 5 -9 17 -44 26 -77 10 -33 21 -68 26 -77 5 -10 9 -29 9 -43 0 -14 5 -25
10 -25 6 0 10 -13 10 -28 0 -16 3 -32 7 -36 5 -4 14 -31 21 -59 26 -104 31
-123 41 -157 5 -19 19 -71 31 -115 12 -44 25 -89 30 -100 12 -29 26 -72 45
-140 10 -33 21 -64 26 -69 5 -6 9 -20 9 -33 0 -13 5 -32 12 -43 10 -15 9 -22
-5 -38 -20 -22 -14 -70 9 -79 8 -3 14 -10 14 -16 0 -6 8 -19 17 -29 19 -22 43
-83 43 -114 0 -18 -15 -55 -69 -164 l-17 -35 -535 -1 -534 0 -59 55 c-191 182
-370 479 -466 776 -23 72 -47 140 -52 152 -6 11 -7 26 -4 32 5 8 214 11 739
11 403 0 731 3 731 7 -4 23 -37 131 -45 145 -5 10 -9 27 -9 38 0 11 -4 28 -9
38 -4 9 -17 44 -27 77 l-19 60 -120 3 c-66 2 -140 -2 -164 -8 -30 -8 -65 -8
-115 -1 -39 6 -116 17 -171 25 -103 15 -107 15 -560 -15 -88 -5 -185 -13 -216
-15 l-57 -6 4 89 c15 312 89 593 221 843 201 379 498 664 883 847 130 62 148
69 245 98 137 41 170 48 295 66 41 6 77 13 79 15 9 8 391 4 438 -5z m1871
-407 c74 -36 125 -114 138 -214 5 -41 10 -50 23 -45 12 4 23 -7 39 -40 12 -24
19 -51 16 -60 -8 -20 -114 -76 -139 -73 -11 2 -30 21 -43 46 -23 41 -23 44 -8
76 20 42 20 59 1 96 -21 40 -70 55 -123 37 -61 -21 -128 -64 -151 -96 -51 -72
0 -151 98 -151 49 0 64 -21 59 -83 l-3 -42 -50 -3 c-104 -7 -180 43 -234 153
-92 187 -30 349 162 417 66 23 142 17 215 -18z m-3 -204 c10 -11 16 -20 13
-20 -3 0 -13 9 -23 20 -10 11 -16 20 -13 20 3 0 13 -9 23 -20z m-2158 -1212
c-3 -8 -6 -5 -6 6 -1 11 2 17 5 13 3 -3 4 -12 1 -19z m20 -119 c6 -89 32 -223
54 -274 7 -17 33 -105 71 -236 6 -20 8 -58 4 -85 -10 -92 -18 -134 -25 -134
-3 0 -15 -15 -24 -32 -21 -39 -89 -91 -153 -118 -25 -11 -49 -20 -53 -20 -5 0
-16 26 -25 58 -19 62 -34 106 -46 137 -4 11 -20 61 -34 110 -15 50 -43 142
-62 205 -19 63 -40 133 -46 155 -6 22 -14 49 -18 60 -14 36 -40 127 -40 140 0
8 13 14 33 14 108 2 330 36 336 52 7 22 26 1 28 -32z m199 -607 c-18 -16 -18
-16 -6 6 6 13 14 21 18 18 3 -4 -2 -14 -12 -24z m-16 -31 c0 -5 -7 -11 -14
-14 -10 -4 -13 -1 -9 9 6 15 23 19 23 5z m90 -85 c0 -2 -7 -7 -16 -10 -8 -3
-12 -2 -9 4 6 10 25 14 25 6z m-106 -94 c-18 -15 -41 -34 -51 -42 -28 -21
-113 -93 -129 -108 -8 -7 -14 -9 -14 -4 0 8 19 25 116 104 75 60 98 78 104 78
3 0 -9 -13 -26 -28z m-207 -205 c-6 -15 -18 -29 -26 -32 -11 -4 -11 -1 1 17 8
13 18 29 22 36 14 23 16 7 3 -21z m-47 -57 c0 -5 -4 -10 -10 -10 -5 0 -10 5
-10 10 0 6 5 10 10 10 6 0 10 -4 10 -10z m417 -223 c11 -84 12 -82 -36 -85
-23 -2 -41 0 -39 5 26 60 61 123 66 119 3 -4 7 -21 9 -39z"/>
<path d="M4750 2399 c0 -5 5 -7 10 -4 6 3 10 8 10 11 0 2 -4 4 -10 4 -5 0 -10
-5 -10 -11z"/>
<path d="M2570 2793 c-19 -3 -39 -8 -44 -13 -9 -9 2 -59 24 -115 15 -38 39
-130 42 -160 l3 -30 173 -5 c96 -3 176 -2 178 2 2 3 -1 19 -7 35 -6 15 -15 37
-19 48 -4 11 -12 32 -18 47 -6 14 -14 55 -17 90 -12 119 4 108 -148 106 -72 0
-148 -3 -167 -5z"/>
<path d="M1068 4843 c7 -3 16 -2 19 1 4 3 -2 6 -13 5 -11 0 -14 -3 -6 -6z"/>
<path d="M4716 4842 c-3 -5 1 -9 9 -9 8 0 12 4 9 9 -3 4 -7 8 -9 8 -2 0 -6 -4
-9 -8z"/>
<path d="M965 4719 c-9 -29 -43 -43 -63 -27 -12 8 -10 5 3 -11 14 -17 16 -25
7 -28 -6 -3 -10 -8 -7 -13 3 -5 -4 -11 -15 -15 -11 -4 -18 -11 -15 -16 6 -8
-9 -13 -28 -10 -5 1 -6 -3 -2 -9 3 -6 11 -8 16 -4 6 3 5 -3 -2 -14 -7 -12 -17
-18 -23 -15 -5 3 -6 1 -2 -6 4 -6 0 -14 -8 -17 -9 -3 -14 -9 -11 -14 6 -10
-35 -51 -45 -45 -6 3 -7 0 -5 -8 7 -16 -33 -70 -45 -62 -5 3 -7 -4 -5 -15 2
-11 -4 -25 -15 -33 -11 -7 -26 -27 -35 -43 -15 -30 -20 -52 -8 -41 3 4 19 -7
35 -23 15 -16 28 -26 28 -22 0 4 5 -1 11 -11 5 -9 7 -23 3 -30 -5 -8 -2 -7 9
2 14 11 20 11 34 0 12 -10 14 -10 9 -1 -12 20 19 25 58 8 20 -8 36 -22 36 -30
0 -9 6 -13 14 -10 8 3 17 0 22 -7 5 -8 3 -10 -5 -4 -9 5 -9 2 0 -14 10 -14 15
-17 21 -8 5 8 12 5 23 -11 9 -12 21 -19 27 -16 8 5 9 1 5 -10 -4 -10 -3 -15 3
-11 22 13 31 -7 13 -28 -10 -11 -13 -17 -7 -14 7 4 19 -4 28 -18 9 -14 22 -25
29 -25 7 0 22 -7 33 -16 10 -8 12 -12 4 -8 -11 5 -12 4 -4 -5 16 -18 47 -20
62 -4 8 7 17 11 22 8 5 -3 7 3 6 12 -4 22 23 65 35 57 5 -3 9 -2 8 3 -4 25 5
44 39 79 20 21 31 35 25 31 -22 -13 -15 -2 18 29 16 16 28 22 26 14 -2 -8 -2
-12 0 -7 3 4 9 5 13 2 5 -3 12 -1 15 5 4 6 1 9 -6 8 -7 -2 -15 5 -17 16 -3 13
0 16 9 11 8 -5 10 -4 5 3 -9 14 18 55 28 44 4 -4 6 0 4 8 -2 9 4 14 14 14 10
-1 15 3 12 8 -3 5 6 27 21 49 17 26 24 47 20 60 -4 11 -9 18 -12 15 -6 -5 -75
43 -81 57 -2 4 -9 7 -17 7 -7 0 -18 7 -25 15 -9 11 -16 12 -30 3 -10 -7 -16
-16 -14 -20 3 -4 0 -8 -7 -8 -7 0 -10 -2 -7 -5 3 -3 -7 -19 -22 -35 -30 -32
-44 -77 -27 -87 6 -4 7 -1 2 7 -5 8 -4 11 3 6 7 -4 8 -15 3 -28 -9 -24 -31
-37 -31 -18 0 6 -4 9 -8 6 -4 -2 -14 0 -22 5 -12 7 -13 11 -2 18 8 4 13 12 13
17 -1 5 4 9 9 9 15 0 13 14 -5 31 -8 9 -15 13 -15 10 0 -3 -9 2 -20 12 -11 9
-29 25 -40 34 -11 10 -22 13 -25 7 -4 -5 -11 -6 -17 -3 -7 4 -8 2 -4 -5 4 -6
0 -14 -8 -17 -9 -3 -13 -10 -10 -15 3 -5 -2 -9 -11 -9 -9 0 -14 -4 -10 -9 9
-15 -14 -24 -30 -11 -34 28 17 110 56 89 24 -12 39 -4 39 21 0 13 5 17 14 14
8 -3 17 -1 21 5 4 7 0 8 -11 4 -16 -6 -16 -4 2 20 10 14 24 27 29 27 6 0 16 4
24 9 13 9 -10 36 -76 91 -10 8 -14 12 -9 8 6 -5 17 -8 26 -7 15 0 -22 19 -49
25 -8 1 -18 9 -22 16 -13 20 -48 18 -54 -3z m90 -58 c22 -16 41 -37 43 -48 2
-10 -11 -38 -28 -61 -26 -36 -33 -41 -49 -32 -17 8 -25 3 -55 -39 -20 -27 -36
-53 -36 -59 0 -6 16 -20 35 -32 l36 -22 33 38 34 39 29 -21 c37 -28 40 -50 12
-87 l-22 -31 33 -28 c19 -15 39 -28 45 -28 6 0 28 24 48 53 34 47 35 53 20 64
-15 12 -14 17 13 55 17 25 39 44 52 46 27 4 112 -61 112 -85 0 -15 -236 -349
-272 -385 -15 -15 -22 -16 -41 -7 -40 21 -67 52 -62 70 5 13 -12 31 -67 72
-162 119 -160 118 -178 102 -15 -13 -21 -12 -58 15 -29 22 -40 37 -37 50 2 11
62 99 132 196 70 97 132 182 137 189 13 18 44 10 91 -24z m105 -346 c17 -9 30
-18 30 -21 0 -3 -4 -3 -9 1 -6 3 -14 -3 -20 -12 -6 -10 -11 -12 -11 -5 0 6 -7
12 -15 12 -8 0 -15 9 -15 20 0 24 3 24 40 5z"/>
<path d="M1620 4550 c-9 -6 -10 -10 -3 -10 6 0 15 5 18 10 8 12 4 12 -15 0z"/>
<path d="M4966 4518 c3 -5 10 -6 15 -3 13 9 11 12 -6 12 -8 0 -12 -4 -9 -9z"/>
<path d="M1386 4472 c-3 -5 1 -9 9 -9 8 0 12 4 9 9 -3 4 -7 8 -9 8 -2 0 -6 -4
-9 -8z"/>
<path d="M981 4426 c-9 -10 -9 -16 -1 -21 6 -4 14 -4 17 -1 4 3 1 6 -7 6 -10
0 -10 3 0 15 7 8 10 15 7 15 -2 0 -10 -6 -16 -14z"/>
<path d="M4714 4412 c3 -5 0 -13 -6 -15 -9 -4 -10 -6 -1 -6 17 -1 25 16 12 25
-7 4 -9 3 -5 -4z"/>
<path d="M1426 4326 c6 -15 4 -17 -6 -11 -9 6 -11 4 -5 -4 5 -9 10 -10 18 -2
8 8 7 14 -2 24 -10 10 -11 8 -5 -7z"/>
<path d="M4890 4136 c0 -2 8 -10 18 -17 15 -13 16 -12 3 4 -13 16 -21 21 -21
13z"/>
<path d="M4865 4003 c-5 -14 -3 -15 6 -6 6 6 19 9 28 6 14 -4 14 -3 1 6 -21
15 -27 14 -35 -6z"/>
<path d="M5400 3174 c-74 -25 -96 -41 -91 -68 1 -4 -3 -13 -8 -20 -5 -6 -19
-38 -31 -71 -28 -76 -43 -93 -64 -75 -20 16 -20 41 -1 66 8 10 15 36 15 57 l0
38 -37 -6 c-59 -10 -59 -11 -55 -49 2 -21 8 -33 14 -30 7 4 8 -8 3 -35 -15
-87 25 -151 94 -151 56 0 89 32 121 116 22 59 29 69 50 69 34 0 39 -39 10 -70
-17 -18 -20 -30 -15 -57 6 -32 9 -34 38 -31 72 9 73 10 69 48 -3 21 -10 35
-18 35 -10 0 -11 6 -4 26 21 54 1 126 -42 153 -25 16 -96 17 -111 2 -17 -17
-31 -13 -17 4 20 24 78 30 116 11 52 -24 76 -70 71 -133 -2 -29 0 -54 4 -55 5
-2 9 -23 11 -48 l3 -44 -50 -9 c-73 -12 -73 -22 -2 -21 64 1 96 9 109 28 12
17 -3 208 -17 236 -33 63 -109 102 -165 84z"/>
<path d="M5146 3124 c-3 -9 -6 -17 -6 -19 0 -1 20 0 44 2 l43 5 7 -42 c6 -36
3 -47 -15 -66 -13 -14 -19 -30 -15 -39 11 -29 29 -10 53 56 14 35 28 68 33 73
11 11 1 38 -11 30 -5 -3 -9 -1 -9 5 0 10 -84 6 -102 -5 -7 -4 -8 -2 -4 4 4 7
3 12 -2 12 -6 0 -13 -7 -16 -16z"/>
<path d="M5088 3073 c7 -3 16 -2 19 1 4 3 -2 6 -13 5 -11 0 -14 -3 -6 -6z"/>
<path d="M5111 3014 c0 -11 3 -14 6 -6 3 7 2 16 -1 19 -3 4 -6 -2 -5 -13z"/>
<path d="M5377 2958 c-24 -76 -52 -117 -92 -134 -19 -8 -35 -18 -35 -23 0 -14
81 -1 115 18 27 15 29 21 26 63 -2 37 2 51 19 68 24 24 23 53 -1 58 -11 2 -20
-13 -32 -50z"/>
<path d="M785 2860 c-3 -5 -17 -10 -31 -10 -13 0 -24 -4 -24 -9 0 -22 -121
-30 -145 -11 -22 19 -90 22 -125 6 l-35 -15 48 -1 c41 0 47 -3 47 -21 0 -15 4
-19 16 -15 9 3 49 6 90 6 57 0 74 3 74 14 0 14 79 29 91 17 4 -3 9 -46 11 -94
l4 -88 -83 -61 c-46 -33 -83 -62 -83 -64 0 -2 14 -4 30 -4 20 0 30 5 30 15 0
12 13 15 55 15 l55 0 0 -80 0 -80 -50 0 c-39 0 -50 3 -50 16 0 14 -11 16 -92
10 -51 -3 -116 -7 -145 -8 -29 -1 -50 -5 -47 -9 2 -4 14 -5 26 -1 14 3 19 1
14 -6 -4 -7 2 -8 22 -2 31 8 120 6 130 -4 3 -3 11 -1 19 6 7 6 16 8 20 5 3 -4
15 -1 27 5 l21 11 -20 -24 c-12 -14 -13 -19 -4 -11 16 12 23 12 64 -4 36 -13
65 -15 65 -4 0 6 4 9 9 5 5 -3 21 0 34 6 24 11 25 15 23 88 -4 108 -5 113 -16
106 -12 -7 -40 12 -40 26 0 5 7 9 15 9 28 0 46 68 41 149 -6 79 -20 100 -64
101 -13 0 -20 4 -17 10 3 6 4 10 1 10 -3 0 -8 -4 -11 -10z"/>
<path d="M5130 2866 c0 -2 7 -7 16 -10 8 -3 12 -2 9 4 -6 10 -25 14 -25 6z"/>
<path d="M5205 2810 c3 -5 11 -10 16 -10 6 0 7 5 4 10 -3 6 -11 10 -16 10 -6
0 -7 -4 -4 -10z"/>
<path d="M710 2796 c0 -15 -61 -26 -146 -26 -41 0 -54 4 -54 15 0 11 -11 15
-40 15 l-40 0 0 -70 0 -70 40 0 c33 0 40 3 40 20 0 18 7 20 70 20 39 0 70 -2
70 -4 0 -2 -49 -41 -110 -86 l-110 -81 0 -54 0 -55 145 0 c122 0 145 -2 145
-15 0 -11 11 -15 41 -15 l40 0 -2 70 -2 70 -39 0 c-27 0 -38 -4 -38 -15 0 -12
-13 -15 -57 -15 l-58 1 26 22 c14 12 56 43 92 69 l67 48 0 85 0 85 -40 0 c-27
0 -40 -4 -40 -14z"/>
<path d="M412 2700 c0 -14 2 -19 5 -12 2 6 2 18 0 25 -3 6 -5 1 -5 -13z"/>
<path d="M558 2682 c-25 -2 -38 -8 -38 -18 0 -10 -13 -14 -45 -14 -33 0 -45
-4 -45 -15 0 -8 5 -15 11 -15 5 0 7 5 4 10 -3 6 -1 10 4 10 6 0 11 -4 11 -9 0
-5 11 -8 25 -5 14 2 25 0 25 -6 0 -5 -3 -9 -8 -7 -4 1 -21 -11 -37 -27 -34
-33 -21 -27 50 22 107 75 110 80 43 74z"/>
<path d="M5236 2575 c-16 -9 -36 -13 -43 -10 -8 2 -11 0 -8 -5 3 -5 25 -7 50
-3 41 5 47 3 80 -30 l36 -36 37 16 c45 19 46 19 37 33 -6 9 -10 9 -17 -1 -7
-11 -11 -11 -15 -1 -2 6 -9 10 -14 7 -5 -4 -6 1 -3 10 5 11 2 14 -12 8 -10 -4
-15 -2 -11 4 3 5 1 10 -6 11 -7 0 -28 3 -47 7 -23 4 -45 1 -64 -10z"/>
<path d="M911 2564 c0 -11 3 -14 6 -6 3 7 2 16 -1 19 -3 4 -6 -2 -5 -13z"/>
<path d="M5465 2572 c-11 -2 -24 -8 -30 -14 -7 -6 -7 -9 0 -7 6 1 30 -2 54 -6
l43 -8 -6 -59 c-4 -33 -10 -66 -12 -73 -3 -8 -41 -26 -84 -40 -66 -22 -90 -38
-90 -61 0 -10 49 -3 52 7 3 8 19 10 51 5 55 -8 55 -8 31 -138 -9 -49 -21 -89
-28 -89 -6 -1 3 -5 19 -8 17 -4 35 -3 42 2 16 12 35 70 38 121 2 22 7 54 11
70 6 25 2 33 -27 58 -19 17 -28 27 -22 23 7 -3 26 4 42 16 22 16 32 33 36 63
11 83 12 115 4 110 -5 -3 -9 -1 -9 5 0 5 -15 14 -32 19 -34 10 -48 11 -83 4z"/>
<path d="M5140 2546 c0 -2 8 -10 18 -17 15 -13 16 -12 3 4 -13 16 -21 21 -21
13z"/>
<path d="M5191 2524 c-33 -24 -46 -62 -72 -212 -20 -115 -21 -135 -8 -143 20
-13 57 -11 61 3 3 9 23 8 84 -1 112 -18 123 -21 118 -36 -3 -7 5 -15 18 -19
53 -14 55 -11 73 85 9 50 15 92 13 94 -10 10 -70 8 -77 -3 -5 -8 -18 -10 -40
-6 -27 6 -32 10 -29 33 3 23 13 29 85 55 89 30 90 31 96 121 2 28 -1 30 -35
33 -21 2 -38 -1 -38 -6 0 -5 -20 -17 -45 -27 l-45 -17 -29 31 c-23 24 -37 31
-68 31 -21 0 -49 -7 -62 -16z m70 -124 c12 -7 19 -21 19 -40 0 -50 -7 -57 -48
-50 -34 5 -37 8 -34 35 3 26 27 65 39 65 2 0 13 -5 24 -10z"/>
<path d="M5216 2374 c-13 -34 -7 -54 18 -54 25 0 40 29 29 56 -7 19 -39 18
-47 -2z"/>
<path d="M5139 2518 c-5 -18 -6 -38 -1 -34 7 8 12 36 6 36 -2 0 -4 -1 -5 -2z"/>
<path d="M413 2455 c0 -27 2 -38 4 -22 2 15 2 37 0 50 -2 12 -4 0 -4 -28z"/>
<path d="M5111 2394 c0 -11 3 -14 6 -6 3 7 2 16 -1 19 -3 4 -6 -2 -5 -13z"/>
<path d="M5101 2344 c0 -11 3 -14 6 -6 3 7 2 16 -1 19 -3 4 -6 -2 -5 -13z"/>
<path d="M5075 2220 c-4 -12 -5 -24 -2 -27 3 -2 8 5 12 17 4 12 5 24 2 27 -3
2 -8 -5 -12 -17z"/>
<path d="M811 2174 c-19 -8 -31 -17 -28 -21 4 -3 12 -2 19 3 7 6 24 11 38 12
23 2 27 -4 55 -95 17 -54 30 -102 30 -107 0 -5 -20 -16 -44 -25 -34 -12 -45
-13 -48 -3 -7 17 -30 15 -109 -11 -51 -18 -69 -28 -69 -42 0 -13 -13 -23 -42
-32 -24 -8 -43 -19 -43 -25 0 -6 6 -6 15 2 9 7 15 8 15 2 0 -5 8 -9 18 -7 9 2
29 6 43 9 28 6 81 50 72 60 -6 5 23 10 55 9 8 -1 11 6 8 15 -5 13 -2 12 9 -2
8 -11 15 -15 15 -10 0 5 11 11 26 12 18 1 23 -2 18 -11 -6 -9 -4 -9 7 -1 8 6
21 11 30 11 30 -1 76 24 86 46 10 22 3 56 -25 114 -8 18 -12 43 -10 57 3 14 2
24 -2 21 -3 -2 -14 5 -23 16 -20 23 -68 25 -116 3z"/>
<path d="M754 2166 c1 -8 5 -18 8 -22 4 -3 5 1 4 10 -1 8 -5 18 -8 22 -4 3 -5
-1 -4 -10z"/>
<path d="M5065 2171 c-3 -5 -1 -12 5 -16 5 -3 10 1 10 9 0 18 -6 21 -15 7z"/>
<path d="M5180 2157 c0 -18 -33 -33 -38 -18 -2 6 -16 10 -30 10 -21 -1 -22 -2
-7 -6 11 -3 25 -11 32 -19 7 -10 13 -12 18 -5 3 6 11 11 17 11 7 0 6 -5 -2
-15 -10 -11 -5 -11 21 2 47 24 145 20 167 -6 19 -21 72 -37 72 -21 0 5 -14 10
-31 10 -22 0 -32 5 -36 19 -5 21 -61 36 -95 25 -14 -4 -18 -2 -14 5 4 6 0 11
-11 11 -10 0 -28 3 -40 6 -17 5 -23 2 -23 -9z"/>
<path d="M803 2140 c-14 -6 -21 -15 -17 -24 4 -10 -19 -22 -92 -46 -85 -29
-98 -31 -106 -17 -7 13 -14 14 -41 5 -17 -6 -33 -12 -34 -13 -2 -1 11 -43 28
-94 28 -84 33 -92 53 -87 11 3 26 6 33 6 6 0 13 10 15 22 2 17 20 27 93 51 77
26 90 28 99 15 7 -12 16 -13 43 -5 18 6 33 15 33 21 0 5 -12 47 -27 93 -28 86
-34 91 -80 73z"/>
<path d="M727 2120 c-12 -18 -34 -22 -92 -19 -31 2 -89 -11 -100 -22 -7 -7 2
-8 28 -4 30 6 37 4 37 -8 0 -13 13 -11 82 12 81 27 103 43 74 54 -9 4 -21 -2
-29 -13z"/>
<path d="M5090 2001 c0 -6 4 -13 10 -16 6 -3 7 1 4 9 -7 18 -14 21 -14 7z"/>
<path d="M4982 1890 l-32 -58 32 -13 c18 -8 39 -12 46 -11 18 4 160 -75 171
-96 14 -24 -5 -52 -36 -52 -29 0 -176 77 -169 89 3 4 -10 15 -29 24 l-34 16
-35 -62 c-52 -93 -52 -93 -16 -112 22 -11 36 -13 43 -6 6 6 36 -4 91 -32 106
-54 150 -56 200 -8 41 40 71 117 61 161 -8 37 -53 76 -138 120 -48 25 -65 39
-62 51 4 10 -6 21 -28 31 l-33 16 -32 -58z"/>
<path d="M516 1921 c-3 -5 1 -11 9 -15 8 -3 15 -1 15 4 0 13 -18 22 -24 11z"/>
<path d="M4949 1884 c-11 -14 -24 -52 -14 -42 2 1 3 6 2 9 -1 4 7 16 17 28 11
12 17 21 14 21 -3 0 -12 -7 -19 -16z"/>
<path d="M540 1876 c0 -8 4 -17 9 -20 5 -4 7 3 4 14 -6 23 -13 26 -13 6z"/>
<path d="M4665 1839 c-4 -6 -5 -12 -2 -15 2 -3 7 2 10 11 7 17 1 20 -8 4z"/>
<path d="M340 1811 c0 -5 5 -13 10 -16 6 -3 10 -2 10 4 0 5 -4 13 -10 16 -5 3
-10 2 -10 -4z"/>
<path d="M4949 1802 c13 -9 36 -29 50 -43 29 -29 141 -89 166 -89 27 0 30 31
6 52 -13 10 -27 15 -32 12 -5 -3 -9 -1 -9 4 0 5 -22 21 -50 36 -27 15 -50 22
-50 16 0 -6 -17 -2 -40 10 -48 24 -74 26 -41 2z"/>
<path d="M607 1799 c7 -7 15 -10 18 -7 3 3 -2 9 -12 12 -14 6 -15 5 -6 -5z"/>
<path d="M989 1767 c7 -10 19 -17 25 -17 10 -1 87 -116 101 -151 7 -18 -46
-60 -79 -63 -36 -4 -146 -84 -146 -106 0 -10 5 -22 10 -25 14 -9 102 43 95 55
-3 6 0 8 7 5 7 -3 24 5 38 16 14 11 19 18 13 14 -7 -3 -13 -4 -13 -1 0 7 87
66 97 66 8 0 83 -111 83 -122 0 -3 -17 -17 -39 -31 -28 -19 -41 -23 -49 -15
-8 8 -26 2 -64 -24 -108 -71 -162 -85 -204 -52 -18 14 -18 15 6 7 52 -16 89
-7 172 44 51 31 87 48 94 42 6 -5 23 0 42 11 l32 20 -36 54 -36 55 -33 -22
c-18 -12 -31 -25 -29 -29 7 -11 -147 -109 -164 -106 -24 5 -39 35 -26 56 14
23 145 113 155 106 7 -4 36 10 68 33 2 1 -16 32 -40 69 -24 37 -47 71 -50 77
-10 14 -71 -32 -65 -49 3 -9 -17 -29 -57 -55 -34 -23 -74 -53 -89 -67 -51 -47
-47 -114 11 -192 14 -19 25 -38 24 -42 -2 -4 9 -15 23 -24 35 -24 138 -25 180
-2 17 9 35 14 38 11 3 -4 6 2 6 12 0 10 3 15 7 12 3 -4 14 0 24 9 10 9 32 19
51 24 18 4 40 9 48 11 8 2 21 11 28 19 12 13 13 13 6 0 -7 -13 -6 -13 10 -1
13 11 14 16 4 22 -10 7 -10 9 -1 9 17 0 11 51 -9 82 -26 39 -70 78 -81 71 -6
-3 -7 -1 -3 6 4 6 12 9 17 6 5 -3 6 1 3 9 -3 9 -10 13 -15 10 -5 -3 -9 3 -9
14 0 10 -20 45 -45 76 -25 32 -43 61 -41 65 2 3 -11 6 -29 6 -18 0 -31 -3 -28
-7 6 -11 -5 -10 -30 4 -20 10 -21 10 -8 -5z"/>
<path d="M970 1740 c0 -5 -5 -9 -11 -7 -6 1 -13 -4 -14 -11 -2 -7 -1 -8 2 -2
2 5 8 8 13 5 4 -3 13 2 20 10 9 10 9 15 1 15 -6 0 -11 -4 -11 -10z"/>
<path d="M912 1721 c-11 -7 -11 -9 0 -14 9 -3 15 1 15 9 0 8 -1 14 -1 14 -1 0
-7 -4 -14 -9z"/>
<path d="M4859 1713 c-13 -16 -12 -17 4 -4 16 13 21 21 13 21 -2 0 -10 -8 -17
-17z"/>
<path d="M886 1675 c6 -14 4 -16 -7 -10 -8 4 -11 4 -6 0 4 -5 -5 -22 -20 -39
-26 -28 -26 -29 -3 -11 14 11 28 24 31 28 3 5 8 8 10 6 7 -4 49 25 49 35 0 4
-7 3 -15 -4 -12 -10 -18 -10 -30 0 -13 11 -14 10 -9 -5z"/>
<path d="M4845 1679 c-4 -6 -5 -12 -2 -15 2 -3 7 2 10 11 7 17 1 20 -8 4z"/>
<path d="M4821 1623 c-1 -17 16 -25 25 -12 4 7 3 9 -4 5 -5 -3 -13 0 -15 6 -4
9 -6 10 -6 1z"/>
<path d="M792 1580 c-12 -12 -22 -24 -22 -27 0 -4 11 4 25 17 23 22 29 30 22
30 -2 0 -13 -9 -25 -20z"/>
<path d="M4883 1588 c1 -7 -4 -12 -11 -10 -8 1 -11 -2 -7 -8 5 -8 11 -8 21 1
7 6 11 15 8 20 -8 13 -14 11 -11 -3z"/>
<path d="M4920 1583 c-16 -19 -23 -46 -9 -37 5 3 7 10 3 15 -7 13 57 8 74 -5
8 -5 24 -11 35 -13 17 -2 19 -1 7 6 -8 5 -18 7 -22 5 -4 -3 -8 -1 -8 3 0 8
-52 44 -62 43 -1 -1 -10 -8 -18 -17z"/>
<path d="M727 1567 c-3 -8 -2 -20 3 -26 5 -9 8 -4 8 13 0 29 -3 32 -11 13z"/>
<path d="M456 1557 c3 -10 9 -15 12 -12 3 3 0 11 -7 18 -10 9 -11 8 -5 -6z"/>
<path d="M4460 1561 c0 -6 4 -13 10 -16 6 -3 7 1 4 9 -7 18 -14 21 -14 7z"/>
<path d="M755 1529 c-4 -6 -5 -12 -2 -15 2 -3 7 2 10 11 7 17 1 20 -8 4z"/>
<path d="M749 1488 c-2 -25 3 -53 12 -62 5 -6 5 2 0 20 -4 16 -6 35 -4 42 3 6
2 12 -1 12 -3 0 -7 -6 -7 -12z"/>
<path d="M750 1407 c0 -3 12 -12 26 -22 15 -9 23 -12 20 -6 -7 11 -46 35 -46
28z"/>
<path d="M4678 1396 c-25 -7 -57 -20 -71 -29 -16 -10 -28 -12 -36 -6 -8 6 -8
5 -1 -3 6 -7 4 -16 -8 -26 -9 -8 -6 -7 8 2 87 57 171 60 242 10 121 -85 114
-247 -16 -342 -42 -31 -59 -37 -111 -40 -34 -2 -71 1 -82 6 -15 8 -20 8 -20
-1 0 -12 17 -17 67 -17 17 0 21 -3 12 -9 -8 -4 14 -8 52 -7 35 0 60 4 54 7 -5
4 -3 9 6 12 9 4 16 1 16 -5 0 -7 7 -5 18 4 9 9 27 19 40 23 12 3 20 9 18 13
-5 8 20 33 26 26 3 -2 13 6 24 18 13 14 14 19 4 14 -8 -4 -5 1 7 11 12 10 23
29 25 43 2 14 8 24 14 23 6 -1 7 18 3 55 -4 31 -8 67 -8 80 -1 15 -5 21 -13
16 -7 -5 -9 -2 -6 8 4 8 -2 21 -13 29 -10 7 -19 21 -19 31 0 16 -18 24 -45 18
-5 -1 -6 2 -2 6 11 11 -71 43 -108 43 -16 0 -51 -6 -77 -13z"/>
<path d="M4659 1361 c-40 -13 -72 -31 -101 -59 -16 -14 -28 -22 -28 -17 0 4
-9 0 -20 -10 -11 -10 -20 -22 -20 -28 0 -5 9 1 20 14 24 29 26 19 4 -24 -25
-47 -23 -125 4 -171 21 -36 22 -56 2 -56 -5 0 -7 6 -4 14 3 7 -2 16 -12 20
-14 5 -15 4 -4 -9 7 -8 9 -15 4 -15 -4 0 -3 -5 4 -12 8 -8 15 -8 26 1 12 10
20 8 45 -10 115 -85 311 34 311 189 0 54 -49 130 -100 157 -34 17 -100 25
-131 16z m67 -155 c55 -55 67 -89 42 -114 -25 -25 -60 -13 -115 41 -54 55 -66
90 -41 115 25 25 59 13 114 -42z"/>
<path d="M4619 1234 c-11 -14 -10 -22 8 -53 29 -50 98 -99 121 -85 31 20 24
42 -32 98 -58 59 -75 66 -97 40z m124 -79 c23 -32 17 -32 -13 0 -13 14 -19 25
-14 25 5 0 17 -12 27 -25z"/>
<path d="M807 1336 c-4 -10 -1 -13 8 -9 8 3 12 9 9 14 -7 12 -11 11 -17 -5z"/>
<path d="M660 1240 c0 -5 5 -10 11 -10 5 0 7 5 4 10 -3 6 -8 10 -11 10 -2 0
-4 -4 -4 -10z"/>
<path d="M1352 1215 c-18 -8 -36 -14 -39 -14 -4 0 -9 -5 -11 -11 -3 -9 1 -9
14 -2 21 11 61 16 110 14 39 -2 119 -55 141 -93 10 -16 22 -29 28 -29 6 0 27
-14 48 -31 l37 -31 -46 -54 -46 -53 -39 31 c-30 24 -39 38 -39 61 l0 30 -24
-22 c-15 -14 -26 -19 -31 -12 -9 16 3 31 26 31 10 0 19 5 19 11 0 6 -7 8 -16
5 -8 -3 -12 -2 -9 4 10 16 -24 24 -50 12 -31 -14 -85 -88 -85 -117 0 -25 29
-55 53 -55 19 0 22 11 6 27 -7 7 -3 21 13 46 22 35 38 47 38 28 0 -5 29 -33
65 -62 l65 -53 -32 -34 c-39 -41 -84 -62 -135 -63 -35 0 -36 -1 -13 -10 14 -6
33 -8 42 -5 10 2 18 1 18 -3 0 -10 47 -8 57 3 5 6 2 6 -7 1 -8 -5 -12 -4 -7 0
4 5 14 10 22 11 20 3 78 39 97 61 9 10 18 31 20 47 1 16 10 31 18 33 13 4 13
3 0 -7 -13 -10 -13 -11 0 -7 8 2 15 8 15 14 0 6 13 26 29 44 37 42 37 83 -1
112 -15 12 -33 22 -40 23 -15 3 -49 34 -36 34 5 0 13 -3 19 -7 5 -5 -4 6 -21
23 -16 18 -32 32 -35 31 -13 -1 -39 16 -35 23 7 11 -75 30 -127 30 -24 -1 -58
-7 -76 -15z"/>
<path d="M1315 1170 c-48 -24 -51 -25 -34 -2 11 14 11 15 -1 5 -16 -15 -34
-17 -26 -5 3 5 -1 9 -9 9 -11 0 -12 -4 -4 -14 9 -10 8 -13 -1 -13 -8 0 -10 -3
-7 -7 8 -8 -13 -34 -22 -28 -4 2 -8 -3 -8 -12 0 -11 9 -6 29 16 37 41 50 33
15 -9 -28 -33 -43 -103 -33 -146 26 -102 159 -191 248 -165 37 12 98 55 98 71
0 5 -25 30 -57 55 l-56 46 -21 -20 c-15 -16 -17 -24 -9 -32 18 -18 4 -39 -27
-39 -35 0 -60 28 -60 67 0 44 81 133 120 133 34 0 80 -49 80 -85 0 -21 41 -66
59 -65 3 1 20 20 38 43 l32 42 -26 27 c-19 20 -30 25 -38 18 -9 -8 -16 -2 -24
19 -39 92 -165 137 -256 91z"/>
<path d="M4473 1150 c0 -25 2 -35 4 -22 2 12 2 32 0 45 -2 12 -4 2 -4 -23z"/>
<path d="M4193 1021 c-17 -11 -35 -17 -39 -13 -4 4 -4 1 0 -5 6 -10 14 -9 37
3 17 8 32 14 34 12 2 -2 20 -34 41 -72 l37 -68 -24 -19 c-32 -25 -44 -24 -64
7 -11 18 -20 23 -27 16 -16 -16 67 -161 90 -156 12 3 24 -8 40 -37 12 -23 21
-43 20 -44 -2 -1 -42 -23 -89 -49 -83 -46 -94 -59 -80 -94 0 -2 13 6 27 17 15
12 35 21 45 21 11 0 19 5 19 12 0 6 3 9 6 5 4 -3 21 5 39 18 17 14 37 25 42
25 6 0 14 7 17 16 4 10 14 14 25 11 14 -3 18 -1 14 10 -5 13 -8 30 -12 72 0 8
-4 11 -7 8 -4 -3 -15 5 -26 18 -11 14 -25 25 -33 25 -14 0 -26 22 -30 56 -2
12 3 21 11 21 11 0 11 -4 2 -16 -6 -9 5 0 26 20 44 42 43 57 -12 139 -43 63
-75 74 -129 41z m-3 -495 c0 -3 -4 -8 -10 -11 -5 -3 -10 -1 -10 4 0 6 5 11 10
11 6 0 10 -2 10 -4z"/>
<path d="M4120 985 c-7 -8 -18 -15 -25 -15 -7 0 -18 -7 -25 -15 -7 -9 -15 -13
-18 -10 -7 7 -32 -15 -32 -29 0 -6 7 -2 15 8 8 11 15 17 15 13 0 -10 77 30 85
44 11 17 -1 21 -15 4z"/>
<path d="M4060 919 c-80 -45 -146 -82 -148 -84 -4 -4 57 -125 63 -125 2 0 15
5 29 11 25 12 25 12 8 41 -15 25 -15 30 -2 38 8 6 21 9 28 7 18 -3 104 -165
92 -172 -15 -9 -12 -30 8 -55 l17 -22 78 42 c42 23 79 46 82 50 9 14 -29 66
-45 62 -23 -4 -117 167 -99 179 24 15 39 10 51 -16 13 -29 16 -30 45 -10 l22
15 -32 57 c-18 31 -36 58 -42 59 -5 2 -75 -33 -155 -77z"/>
<path d="M1187 969 c4 -13 8 -18 11 -10 2 7 -1 18 -6 23 -8 8 -9 4 -5 -13z"/>
<path d="M1917 906 c-4 -10 21 -27 84 -57 49 -23 89 -46 89 -50 0 -25 -36 -79
-52 -79 -27 0 -92 -143 -77 -168 8 -12 6 -27 -6 -56 -15 -35 -19 -38 -45 -32
-16 3 -32 1 -35 -4 -4 -6 1 -7 11 -3 13 5 16 2 12 -9 -4 -8 -1 -15 8 -15 7 0
11 4 9 8 -3 3 7 9 21 12 16 3 24 0 21 -7 -3 -6 6 -12 20 -12 20 -2 22 0 11 14
-9 11 -9 14 -1 9 17 -11 43 44 43 91 0 59 19 103 61 142 44 41 77 109 59 120
-6 4 -11 11 -9 16 1 5 -17 19 -39 31 -23 12 -42 20 -42 17 0 -2 -21 7 -47 21
-53 28 -88 32 -96 11z"/>
<path d="M3990 905 c-11 -13 -10 -14 4 -9 9 3 16 10 16 15 0 13 -6 11 -20 -6z"/>
<path d="M1222 896 c4 -5 0 -16 -10 -23 -15 -13 -15 -13 6 -3 23 11 25 9 25
-32 0 -10 4 -15 8 -12 5 3 6 10 3 16 -4 6 -1 9 7 6 8 -2 20 -16 27 -31 8 -16
18 -24 27 -21 10 4 3 15 -23 37 -20 18 -46 41 -57 52 -11 12 -17 16 -13 11z"/>
<path d="M1870 885 c0 -8 2 -15 4 -15 2 0 6 7 10 15 3 8 1 15 -4 15 -6 0 -10
-7 -10 -15z"/>
<path d="M3936 875 c-10 -8 -23 -12 -29 -8 -6 3 -7 1 -3 -5 5 -8 13 -9 24 -2
33 19 47 30 37 30 -5 -1 -19 -7 -29 -15z"/>
<path d="M1880 850 c-10 -24 -10 -33 0 -45 20 -24 -56 -184 -87 -185 -15 0
-24 -10 -32 -32 -6 -17 -10 -33 -8 -34 1 -2 41 -21 88 -42 l86 -40 16 33 c13
28 14 35 2 45 -19 16 61 193 85 185 11 -4 21 6 33 30 l16 35 -74 34 c-111 51
-110 51 -125 16z"/>
<path d="M3880 850 c0 -5 5 -10 11 -10 5 0 7 5 4 10 -3 6 -8 10 -11 10 -2 0
-4 -4 -4 -10z"/>
<path d="M4016 791 c-3 -4 1 -17 9 -27 21 -27 18 -39 -10 -52 -26 -12 -36 -38
-10 -29 8 4 17 2 20 -3 3 -5 13 -6 22 -3 12 5 14 3 8 -8 -8 -12 -6 -12 8 0 9
7 14 17 11 22 -3 5 0 9 6 9 5 0 -1 23 -15 50 -24 48 -38 60 -49 41z"/>
<path d="M1851 776 c-9 -11 -9 -16 1 -22 7 -4 10 -4 6 1 -4 4 -3 14 3 22 6 7
9 13 6 13 -2 0 -10 -6 -16 -14z"/>
<path d="M3890 760 c-9 -6 -10 -10 -3 -10 6 0 15 5 18 10 8 12 4 12 -15 0z"/>
<path d="M2340 738 c-23 -10 -17 -12 58 -28 46 -10 87 -21 91 -26 4 -5 25 -48
46 -96 25 -56 42 -83 47 -75 12 18 10 57 -3 57 -8 0 -10 15 -7 44 3 26 1 50
-6 57 -8 9 -8 10 3 4 9 -5 7 2 -5 17 -11 15 -25 23 -33 20 -9 -3 -12 -1 -7 6
4 7 4 12 -1 13 -4 0 -26 2 -48 4 -22 2 -56 6 -75 9 -19 3 -46 1 -60 -6z"/>
<path d="M2276 730 c5 -8 9 -21 10 -28 2 -8 5 -17 8 -20 4 -3 5 4 3 16 -2 12
-9 28 -17 35 -10 10 -11 9 -4 -3z"/>
<path d="M1825 719 c-11 -17 1 -21 15 -4 8 9 8 15 2 15 -6 0 -14 -5 -17 -11z"/>
<path d="M3934 709 c-4 -7 -3 -9 4 -5 5 3 13 0 15 -6 4 -9 6 -10 6 -1 1 17
-16 25 -25 12z"/>
<path d="M2315 697 c-14 -49 -15 -67 0 -67 19 0 19 -5 -1 -112 -14 -74 -19
-88 -35 -88 -11 0 -19 -7 -19 -17 0 -10 -3 -27 -6 -38 -5 -19 2 -22 63 -32 37
-7 69 -10 71 -9 1 2 6 20 9 40 5 30 3 36 -12 36 -13 0 -16 6 -12 23 4 12 9 41
13 65 4 23 10 44 14 47 4 2 32 -50 62 -117 57 -129 54 -125 135 -141 38 -7 33
-18 63 151 19 105 25 122 41 122 13 0 19 8 21 25 0 14 1 30 2 37 1 11 -12 15
-100 31 -30 6 -32 4 -39 -30 -5 -27 -3 -38 8 -44 12 -7 13 -18 6 -55 -9 -49
-19 -67 -26 -49 -2 6 -23 53 -47 105 -42 94 -43 95 -87 106 -82 20 -120 24
-124 11z"/>
<path d="M2635 699 c6 -9 -24 -21 -36 -13 -5 3 -9 1 -9 -4 0 -5 34 -15 76 -22
l76 -13 -7 -46 c-8 -55 -12 -62 -28 -55 -10 3 -19 -27 -35 -113 -12 -65 -22
-126 -22 -136 0 -22 -39 -38 -62 -26 -19 10 -65 12 -55 3 7 -8 43 -14 107 -20
60 -6 71 11 98 156 14 77 27 119 38 127 22 16 32 107 14 128 -7 8 -22 15 -34
15 -12 0 -45 6 -73 13 -29 8 -50 11 -48 6z"/>
<path d="M1801 666 c-14 -15 -19 -26 -12 -31 10 -6 15 1 12 18 0 4 3 7 8 7 5
0 11 7 15 15 8 21 3 19 -23 -9z"/>
<path d="M3093 682 c-50 -2 -75 -8 -84 -19 -12 -14 -4 -15 86 -12 l100 4 3
-52 c2 -43 0 -53 -12 -53 -18 0 -20 -22 -10 -119 5 -39 11 -61 19 -61 16 0 25
-23 25 -64 l0 -33 -61 -7 c-34 -3 -85 -6 -113 -7 -41 -1 -46 -3 -26 -9 40 -13
161 -11 210 4 40 12 46 17 51 49 5 33 -15 107 -30 107 -10 0 -3 112 10 152 6
20 9 52 5 71 -9 49 -29 55 -173 49z"/>
<path d="M4100 660 c6 -11 13 -20 16 -20 2 0 0 9 -6 20 -6 11 -13 20 -16 20
-2 0 0 -9 6 -20z"/>
<path d="M2281 644 c0 -11 3 -14 6 -6 3 7 2 16 -1 19 -3 4 -6 -2 -5 -13z"/>
<path d="M3020 633 c-34 -4 -36 -5 -32 -38 2 -20 10 -35 17 -35 17 0 25 -46
25 -136 0 -61 -3 -74 -16 -74 -12 0 -15 -9 -12 -37 l4 -38 95 4 c51 2 97 5
100 7 11 6 -3 74 -16 74 -18 0 -25 33 -25 128 0 68 3 82 16 82 11 0 14 8 12
33 l-3 32 -65 1 c-36 1 -81 -1 -100 -3z"/>
<path d="M4085 612 c-1 -21 4 -28 20 -29 11 -1 14 1 7 4 -6 3 -10 8 -7 12 2 5
-1 16 -8 25 -11 14 -12 13 -12 -12z"/>
<path d="M1742 610 c-18 -29 -15 -38 4 -12 9 13 14 25 12 27 -2 2 -9 -5 -16
-15z"/>
<path d="M2288 613 c6 -2 18 -2 25 0 6 3 1 5 -13 5 -14 0 -19 -2 -12 -5z"/>
<path d="M2280 574 c8 -10 15 -20 16 -22 1 -2 4 1 7 5 3 5 -4 15 -16 23 -21
12 -21 12 -7 -6z"/>
<path d="M1686 572 c-2 -4 -1 -14 4 -22 7 -11 9 -9 7 8 -1 24 -3 26 -11 14z"/>
<path d="M1710 545 c0 -2 6 -8 13 -14 10 -8 14 -7 14 2 0 8 -6 14 -14 14 -7 0
-13 -1 -13 -2z"/>
<path d="M2287 519 c4 -13 8 -18 11 -10 2 7 -1 18 -6 23 -8 8 -9 4 -5 -13z"/>
<path d="M2990 531 c-8 -6 -19 -7 -25 -3 -5 3 -4 -2 4 -11 7 -9 16 -17 19 -17
3 0 2 3 -1 7 -4 3 1 12 11 19 19 15 14 18 -8 5z"/>
<path d="M1700 526 c0 -2 8 -10 18 -17 15 -13 16 -12 3 4 -13 16 -21 21 -21
13z"/>
<path d="M1765 521 c-2 -5 4 -11 15 -14 11 -3 20 -2 20 3 0 12 -28 21 -35 11z"/>
<path d="M2395 474 c-5 -36 -3 -49 8 -55 12 -7 13 -18 5 -61 -5 -29 -15 -60
-21 -68 -9 -12 -7 -11 8 1 19 16 72 34 88 31 4 -1 7 0 7 3 0 5 -80 189 -85
193 -1 2 -6 -18 -10 -44z"/>
<path d="M3002 490 c0 -14 2 -19 5 -12 2 6 2 18 0 25 -3 6 -5 1 -5 -13z"/>
<path d="M1842 487 c10 -8 14 -18 10 -22 -4 -5 -1 -5 6 -1 17 10 15 14 -10 26
-21 10 -21 10 -6 -3z"/>
<path d="M2263 485 c0 -8 4 -12 9 -9 5 3 6 10 3 15 -9 13 -12 11 -12 -6z"/>
<path d="M2276 461 c-4 -7 -5 -15 -2 -18 9 -9 19 4 14 18 -4 11 -6 11 -12 0z"/>
<path d="M3008 388 c4 -17 2 -20 -12 -15 -10 4 -15 3 -11 -3 12 -20 35 -10 35
15 0 14 -4 25 -9 25 -5 0 -7 -10 -3 -22z"/>
<path d="M2975 320 c0 -21 3 -36 8 -33 4 2 7 17 7 33 0 16 -3 31 -7 33 -5 3
-8 -12 -8 -33z"/>
<path d="M2270 328 c48 -13 65 -24 62 -38 -1 -6 2 -9 8 -5 6 3 7 11 4 17 -5 7
-2 9 8 6 8 -4 21 -2 29 4 10 7 5 8 -18 5 -18 -2 -34 0 -35 3 -2 4 -23 10 -48
13 -43 5 -43 5 -10 -5z"/>
<path d="M2486 278 c3 -4 11 -5 19 -1 21 7 19 12 -4 10 -11 0 -18 -5 -15 -9z"/>
<path d="M3178 143 c7 -3 16 -2 19 1 4 3 -2 6 -13 5 -11 0 -14 -3 -6 -6z"/>
<path d="M2764 5369 c-26 -29 -33 -198 -10 -252 30 -74 107 -72 133 3 23 68 9
215 -24 252 -22 25 -75 23 -99 -3z m95 -27 c14 -27 13 -214 -2 -237 -7 -12
-24 -20 -40 -21 -15 -1 -25 1 -23 3 3 3 -4 14 -14 25 -14 15 -19 34 -18 67 1
25 -2 57 -6 70 -6 18 -5 22 4 16 10 -6 12 -1 8 19 -3 15 -1 26 6 27 6 0 5 3
-3 6 -11 4 -8 10 10 24 21 17 21 18 4 13 -14 -4 -13 -1 5 9 27 17 53 9 69 -21z"/>
<path d="M2826 5352 c-3 -5 1 -9 9 -9 8 0 12 4 9 9 -3 4 -7 8 -9 8 -2 0 -6 -4
-9 -8z"/>
<path d="M2825 5320 c-3 -6 1 -7 9 -4 18 7 21 14 7 14 -6 0 -13 -4 -16 -10z"/>
<path d="M2813 5117 c0 -8 6 -14 14 -14 9 0 10 4 2 14 -6 7 -12 13 -14 13 -1
0 -2 -6 -2 -13z"/>
</g>
</svg>
