<?xml version="1.0" standalone="no"?>
<!DOCTYPE svg PUBLIC "-//W3C//DTD SVG 20010904//EN"
 "http://www.w3.org/TR/2001/REC-SVG-20010904/DTD/svg10.dtd">
<svg version="1.0" xmlns="http://www.w3.org/2000/svg"
 width="525.000000pt" height="352.000000pt" viewBox="0 0 525.000000 352.000000"
 preserveAspectRatio="xMidYMid meet">

<g transform="translate(0.000000,352.000000) scale(0.100000,-0.100000)"
fill="#000000" stroke="none">
<path d="M0 1760 l0 -1760 2625 0 2625 0 0 1760 0 1760 -2625 0 -2625 0 0
-1760z m3070 1716 c562 -71 1042 -243 1430 -514 140 -97 360 -307 448 -427
110 -149 198 -341 239 -520 28 -124 25 -388 -6 -514 -141 -570 -666 -1043
-1431 -1290 -338 -109 -635 -157 -1020 -168 -446 -11 -830 41 -1215 164 -440
142 -757 325 -1031 598 -147 146 -236 264 -308 410 -91 183 -124 311 -133 510
-20 485 249 931 774 1283 100 67 286 168 372 202 30 11 73 29 95 40 68 30 274
99 391 130 206 54 433 94 630 110 154 12 626 4 765 -14z"/>
<path d="M1378 3077 c-22 -51 -22 -71 -3 -90 18 -18 31 -67 17 -67 -5 0 -18
17 -28 38 -10 21 -19 31 -22 23 -2 -7 10 -33 27 -57 32 -46 38 -64 21 -64 -6
0 -18 16 -27 35 -9 19 -20 32 -25 29 -5 -3 1 -22 13 -42 26 -42 59 -108 59
-117 0 -20 -20 4 -44 53 -16 31 -31 51 -33 44 -3 -7 16 -47 41 -91 25 -43 46
-81 46 -84 0 -4 -7 -7 -16 -7 -12 0 -14 -3 -6 -12 11 -15 26 -78 18 -78 -3 0
-24 36 -47 80 -22 44 -45 80 -50 80 -5 0 18 -53 50 -119 33 -65 57 -121 54
-125 -3 -3 -12 2 -19 12 -12 16 -13 16 -14 0 0 -9 -5 -18 -12 -20 -8 -3 -1
-23 19 -61 17 -31 27 -57 22 -57 -5 0 -6 -12 -3 -26 9 -36 -10 -24 -33 19 -9
18 -18 27 -21 19 -2 -7 3 -24 12 -37 9 -14 13 -25 8 -25 -5 0 -15 11 -22 25
-7 14 -20 25 -27 25 -10 0 -12 7 -9 20 3 11 9 29 12 40 3 13 0 22 -10 26 -9 3
-16 14 -16 23 -1 44 -49 147 -114 243 -18 27 -98 91 -143 115 -34 18 -124 35
-162 31 l-34 -3 81 -53 c115 -76 172 -137 261 -282 73 -119 93 -158 88 -173
-2 -7 -16 13 -29 44 -14 30 -42 79 -62 107 -20 29 -36 54 -36 58 0 14 -56 77
-77 85 -13 5 -23 12 -22 16 3 18 -2 33 -11 33 -5 0 -24 15 -42 34 -40 40 -116
91 -124 83 -18 -17 97 -192 207 -316 43 -50 79 -94 79 -99 0 -5 -10 -14 -23
-21 -31 -16 -61 -3 -89 39 -15 23 -45 46 -88 67 -36 18 -68 33 -73 33 -27 1
67 -109 105 -122 7 -3 10 -9 6 -13 -9 -10 -53 2 -70 19 -27 26 -149 106 -164
106 -25 0 -15 -18 41 -75 30 -30 55 -56 55 -58 0 -2 -14 -1 -32 1 -17 3 -53
21 -80 42 -45 34 -156 76 -168 64 -3 -3 18 -28 47 -55 34 -33 60 -49 77 -49
14 0 26 -4 26 -10 0 -5 -15 -10 -34 -10 -25 0 -38 6 -50 25 -11 17 -37 31 -87
46 -38 12 -73 18 -76 15 -10 -10 51 -65 91 -81 44 -18 46 -31 7 -38 -21 -4
-44 2 -83 23 -29 15 -71 32 -93 36 l-40 7 19 -22 c11 -12 37 -32 58 -43 37
-21 49 -38 27 -38 -6 0 -24 9 -40 21 -16 11 -35 18 -42 16 -7 -3 -5 -8 8 -13
50 -20 57 -50 20 -78 -13 -10 -22 -23 -18 -29 4 -6 20 6 39 29 43 50 56 37 14
-14 -18 -23 -30 -48 -28 -59 3 -15 13 -9 55 33 29 28 55 63 58 77 5 17 18 29
37 36 44 16 44 15 4 -29 -20 -22 -36 -44 -36 -49 0 -5 -3 -16 -6 -25 -21 -54
98 34 121 90 10 25 20 34 37 34 13 0 33 3 46 6 26 7 30 -12 4 -20 -10 -4 -29
-24 -43 -46 -13 -22 -27 -40 -31 -40 -5 0 -8 -7 -8 -16 0 -13 6 -15 28 -9 48
11 103 55 121 95 12 30 23 39 46 43 38 6 45 -1 20 -18 -33 -23 -55 -47 -70
-78 -19 -38 -11 -49 23 -36 36 14 67 44 98 96 13 24 31 43 39 43 20 0 19 -9
-4 -29 -21 -19 -61 -93 -61 -116 0 -8 6 -15 14 -15 17 0 122 112 131 140 7 21
29 27 40 11 3 -5 1 -12 -5 -16 -6 -4 -8 -11 -5 -16 4 -5 -1 -9 -10 -9 -13 0
-16 -6 -11 -24 4 -17 1 -26 -11 -30 -9 -4 -13 -9 -10 -13 4 -3 2 -13 -5 -20
-9 -11 -9 -17 3 -24 12 -7 12 -10 0 -18 -9 -6 -10 -10 -2 -16 7 -4 8 -11 3
-18 -13 -18 -13 -67 -1 -67 8 0 8 -5 -1 -15 -10 -12 -9 -16 4 -21 13 -5 14 -9
5 -20 -8 -10 -8 -14 0 -14 6 0 11 -9 11 -20 0 -11 7 -20 16 -20 11 0 14 -6 9
-20 -4 -12 -2 -20 5 -20 6 0 20 -9 32 -20 l21 -19 -26 -12 c-15 -7 -36 -31
-47 -55 -40 -82 -4 -184 65 -184 29 0 74 35 86 67 l9 25 40 -43 c28 -31 39
-53 40 -75 0 -35 -26 -56 -157 -124 -127 -66 -167 -119 -224 -293 -45 -134
-69 -268 -76 -409 l-6 -126 72 -4 c40 -1 78 0 85 4 9 5 13 37 14 108 0 107 13
159 63 264 16 33 30 67 30 75 3 44 22 -77 26 -167 3 -82 0 -119 -17 -188 -12
-47 -19 -89 -15 -92 4 -4 25 -7 48 -7 229 -3 320 -7 302 -15 -13 -6 7 -8 60
-8 59 0 72 2 50 8 -22 6 -12 8 40 7 66 -1 71 1 83 26 7 15 17 27 21 27 9 0 40
76 52 129 5 22 4 40 -3 48 -8 10 -7 12 6 7 12 -5 15 -2 10 12 -3 11 11 -14 32
-53 43 -80 108 -163 128 -163 6 0 44 21 83 47 71 48 125 107 196 216 46 70 72
79 48 15 -10 -26 -19 -101 -26 -221 l-5 -77 28 0 c28 0 28 0 41 103 7 56 15
131 17 167 6 124 13 151 54 199 l39 46 -16 45 c-21 61 -26 86 -27 149 -1 35
-6 56 -14 59 -21 7 -42 -18 -42 -49 0 -16 -5 -29 -10 -29 -6 0 -14 -10 -19
-23 -5 -13 -20 -40 -34 -60 -14 -21 -28 -60 -32 -90 -6 -44 -14 -59 -53 -100
-66 -68 -190 -169 -201 -163 -10 6 -21 34 -52 134 -12 39 -26 72 -31 72 -4 0
-8 6 -8 13 0 6 -17 54 -37 105 -42 101 -95 180 -135 199 -14 7 -53 39 -87 70
-49 46 -63 65 -66 94 -4 29 0 38 18 48 12 7 33 28 47 46 26 36 40 44 40 22 0
-22 35 -47 72 -53 28 -5 40 -1 67 22 32 27 33 29 29 92 -4 59 -7 68 -37 93
-18 15 -49 30 -69 34 -36 7 -37 7 -13 20 23 12 23 13 5 23 -17 10 -17 11 -1
12 20 0 22 11 5 29 -11 11 -10 13 5 8 15 -6 17 -3 12 13 -4 12 -2 20 5 20 7 0
10 7 6 15 -3 9 0 15 8 15 10 0 13 16 12 60 -1 33 1 60 6 60 4 0 8 7 8 15 0 8
-4 15 -9 15 -5 0 -12 16 -15 35 -5 22 -13 35 -23 35 -9 0 -13 6 -9 15 3 9 -1
18 -9 22 -12 4 -13 9 -4 19 16 19 25 11 49 -44 20 -46 75 -112 93 -112 11 0 4
56 -11 93 -7 15 -24 39 -39 52 l-28 25 35 -4 c31 -3 36 -8 45 -42 17 -62 42
-108 65 -122 17 -10 21 -10 26 2 8 20 -15 96 -38 128 l-19 28 29 0 c26 0 30
-4 40 -51 13 -55 64 -129 89 -129 12 0 14 7 9 28 -3 15 -9 38 -12 51 -3 13
-14 37 -25 53 -22 31 -21 32 15 19 19 -8 26 -19 31 -56 8 -48 37 -95 61 -95
18 0 18 36 -1 90 -10 29 -11 40 -3 38 6 -2 19 -25 27 -49 19 -55 56 -105 66
-89 9 14 -3 81 -17 98 -8 8 -7 12 3 12 8 0 22 -14 31 -30 9 -17 24 -30 33 -30
19 0 19 14 0 30 -23 19 -18 38 10 42 14 2 24 8 23 13 -2 6 -11 9 -21 8 -10 -2
-15 2 -12 7 3 6 13 10 21 10 8 0 14 5 14 11 0 11 -29 5 -67 -13 -24 -12 -58
-4 -48 12 3 5 13 10 22 10 18 0 93 57 93 71 0 14 -80 1 -109 -17 -15 -9 -36
-28 -48 -42 -18 -22 -25 -24 -35 -14 -11 11 -10 15 2 22 43 25 124 87 128 98
13 40 -104 -13 -157 -72 -24 -25 -51 -35 -51 -17 0 5 10 16 23 24 37 26 97 85
97 96 0 34 -101 -19 -140 -73 -14 -20 -31 -36 -38 -36 -7 0 8 25 33 57 29 35
42 60 37 65 -13 13 -81 -33 -112 -77 -14 -19 -31 -35 -37 -35 -18 0 -18 1 32
55 53 56 55 80 7 80 -17 0 -32 -3 -32 -7 0 -18 -95 -128 -109 -128 -11 1 -8 7
11 21 25 19 48 53 69 107 l9 22 -39 -19 c-41 -22 -95 -78 -106 -110 -3 -12
-18 -23 -33 -27 -15 -3 -35 -7 -44 -9 -32 -6 -19 14 25 39 24 14 54 38 68 52
13 15 49 45 79 67 127 94 285 256 266 274 -4 4 -134 -68 -258 -143 -26 -16
-53 -41 -60 -57 -7 -15 -17 -26 -23 -24 -8 3 -105 -87 -105 -97 0 -2 -20 -24
-45 -50 -25 -27 -45 -57 -45 -67 0 -23 -13 -25 -30 -4 -12 14 -15 13 -35 -5
-40 -37 -40 -20 0 20 22 21 49 40 60 40 11 0 29 12 40 25 11 14 31 38 44 53
13 15 28 34 35 42 32 43 164 145 264 204 62 36 117 66 122 66 6 0 10 4 10 9 0
13 -140 25 -181 16 -92 -19 -211 -110 -274 -209 -19 -30 -48 -69 -65 -87 -35
-39 -38 -53 -10 -44 29 9 25 2 -25 -55 -25 -28 -45 -45 -45 -39 0 7 7 21 17
31 15 17 15 18 0 18 -23 0 -21 13 3 35 22 20 18 37 -8 28 -16 -7 -16 -5 -1 17
40 61 80 141 77 151 -2 6 -21 -17 -43 -52 -21 -35 -41 -57 -43 -50 -2 7 2 20
10 29 17 19 78 120 78 127 0 17 -22 -1 -41 -32 -13 -21 -27 -39 -31 -41 -4 -2
-8 -10 -8 -18 0 -8 -4 -14 -10 -14 -17 0 -11 27 13 57 40 50 64 88 71 111 13
41 -11 22 -48 -38 -21 -33 -41 -60 -47 -60 -15 0 -11 10 21 50 17 21 30 41 30
45 0 4 9 18 20 32 21 28 26 53 10 53 -5 0 -10 -4 -10 -9 0 -14 -73 -131 -82
-131 -11 0 -10 17 2 25 12 7 75 122 85 153 14 47 -13 19 -45 -48 -31 -65 -50
-87 -50 -59 0 7 18 47 40 90 22 44 36 79 30 79 -6 0 -20 -20 -32 -44 -27 -56
-48 -51 -46 10 0 29 5 44 13 44 22 0 29 58 11 83 -24 34 -43 57 -47 57 -2 0
-12 -19 -21 -43z m47 -56 c-5 -18 -10 -20 -21 -10 -15 12 -19 41 -7 53 13 13
35 -21 28 -43z m-11 -556 c9 -14 13 -25 9 -25 -12 1 -46 50 -35 50 6 0 17 -11
26 -25z m181 -187 c24 -7 33 -13 23 -15 -9 -3 -34 0 -54 6 -21 6 -92 9 -158 8
-126 -3 -173 -16 -249 -69 -27 -20 -45 -19 -33 0 12 19 149 78 201 86 48 7
227 -3 270 -16z m-262 -48 c23 -27 22 -27 -18 -32 -19 -2 -35 -3 -35 -2 0 1 3
10 6 18 5 14 9 14 22 4 13 -11 14 -10 3 10 -15 27 -1 29 22 2z m84 -5 c8 -9
13 -19 9 -22 -7 -7 -36 16 -36 28 0 13 10 11 27 -6z m121 3 c21 -21 14 -35
-18 -30 -16 2 -30 7 -30 11 0 9 22 31 30 31 3 0 11 -5 18 -12z m118 -35 c7
-10 14 -24 14 -31 0 -12 -28 -1 -70 26 -6 4 22 22 34 22 5 0 15 -8 22 -17z
m-422 -24 c-2 -4 -17 -12 -34 -17 -28 -10 -30 -9 -30 12 0 12 3 25 6 28 7 8
64 -14 58 -23z m365 -31 c33 -17 61 -35 61 -41 0 -5 -3 -7 -7 -5 -126 64 -123
63 -243 62 -101 -1 -122 -4 -172 -27 -32 -14 -73 -38 -92 -52 -19 -15 -37 -22
-40 -16 -11 16 80 71 158 96 23 7 93 13 157 14 112 1 119 0 178 -31z m-463 0
c6 -10 -20 -38 -37 -38 -5 0 -5 37 0 48 4 7 31 0 37 -10z m358 -14 c57 -8 60
-25 11 -77 -27 -29 -42 -37 -65 -35 -35 3 -86 52 -96 92 -6 26 -5 26 49 26 30
0 75 -3 101 -6z m-134 -104 c11 -7 3 -10 -28 -10 -24 0 -52 -5 -63 -10 -11 -7
-19 -7 -19 -1 0 22 84 38 110 21z m240 -15 c24 -13 23 -13 -20 -10 -25 2 -51
4 -58 4 -7 1 -10 6 -7 11 9 14 56 12 85 -5z m-136 -97 c9 -31 16 -60 16 -66 0
-7 -79 -6 -87 2 -1 1 7 32 19 70 11 37 24 64 28 59 4 -4 15 -33 24 -65z m-84
27 c0 -7 -7 -15 -15 -19 -11 -4 -15 1 -15 19 0 18 4 23 15 19 8 -4 15 -12 15
-19z m141 -18 c-8 -8 -14 -8 -22 0 -7 7 -5 16 8 28 17 18 18 18 21 1 2 -10 -1
-23 -7 -29z m-218 19 c3 -8 3 -17 0 -20 -7 -7 -33 13 -33 25 0 15 27 10 33 -5z
m295 2 c-7 -20 -48 -23 -48 -4 0 11 9 16 26 16 16 0 24 -5 22 -12z m176 -93
c21 -20 26 -33 26 -72 -1 -56 -16 -81 -56 -89 -63 -12 -103 77 -68 152 20 42
58 46 98 9z m-585 -14 c46 -65 14 -161 -55 -161 -17 0 -37 6 -43 13 -18 22
-21 85 -6 121 26 61 72 73 104 27z m123 -56 c16 -10 33 -95 19 -95 -23 0 -121
143 -121 176 0 4 19 -11 43 -32 24 -22 50 -43 59 -49z m324 34 c-9 -18 -16
-37 -16 -44 0 -6 -22 -36 -50 -66 l-50 -54 6 48 c6 40 15 57 63 106 58 61 74
64 47 10z m-178 -68 c37 -1 42 -4 42 -23 -1 -27 -17 -51 -45 -65 -15 -8 -27
-6 -50 7 -43 24 -49 93 -8 85 10 -2 37 -4 61 -4z m-134 -222 c-8 -14 -34 -11
-34 4 0 8 3 17 7 20 9 9 34 -13 27 -24z m237 -32 c-13 -13 -26 -3 -16 12 3 6
11 8 17 5 6 -4 6 -10 -1 -17z m-223 -24 c-5 -25 -28 -28 -28 -4 0 12 6 21 16
21 9 0 14 -7 12 -17z m-100 -5 c-3 -7 -11 -13 -18 -13 -7 0 -15 6 -17 13 -3 7
4 12 17 12 13 0 20 -5 18 -12z m40 0 c-3 -7 -14 -38 -24 -68 l-19 -55 -3 37
c-3 38 21 98 39 98 6 0 9 -6 7 -12z m375 -33 c-5 -16 -33 -21 -33 -7 0 13 22
32 31 26 5 -2 6 -11 2 -19z m-123 6 c0 -6 -4 -13 -10 -16 -5 -3 -10 1 -10 9 0
9 5 16 10 16 6 0 10 -4 10 -9z m65 -55 c0 -30 -3 -49 -7 -43 -13 24 -13 97 0
97 4 0 7 -24 7 -54z m-385 8 c0 -9 -7 -14 -17 -12 -25 5 -28 28 -4 28 12 0 21
-6 21 -16z m160 -4 c0 -11 -4 -20 -10 -20 -5 0 -10 9 -10 20 0 11 5 20 10 20
6 0 10 -9 10 -20z m-59 -13 c-6 -6 -11 -18 -11 -27 0 -9 -6 -25 -14 -36 -14
-18 -15 -17 -11 11 2 17 4 31 6 33 1 1 2 5 3 10 3 17 18 32 28 26 6 -4 6 -10
-1 -17z m175 -4 c-10 -10 -19 5 -10 18 6 11 8 11 12 0 2 -7 1 -15 -2 -18z
m-56 -8 c0 -8 -4 -15 -10 -15 -5 0 -10 7 -10 15 0 8 5 15 10 15 6 0 10 -7 10
-15z m207 -11 c-9 -9 -28 6 -21 18 4 6 10 6 17 -1 6 -6 8 -13 4 -17z m-83 -56
c-3 -29 -7 -54 -9 -56 -6 -6 -4 91 2 101 10 16 11 5 7 -45z m-334 7 c0 -8 -7
-15 -15 -15 -16 0 -20 12 -8 23 11 12 23 8 23 -8z m141 -9 c-6 -7 -12 -31 -13
-54 -2 -23 -7 -40 -13 -38 -5 2 -8 10 -6 17 2 8 8 33 13 57 5 23 14 39 19 36
6 -4 6 -10 0 -18z m-84 -28 c-3 -8 -6 -5 -6 6 -1 11 2 17 5 13 3 -3 4 -12 1
-19z m359 -3 c-3 -9 -11 -13 -16 -10 -8 5 -7 11 1 21 14 18 24 11 15 -11z
m-130 -1 c-3 -9 -6 -32 -7 -52 0 -33 -1 -34 -9 -14 -11 26 -2 82 12 82 6 0 7
-7 4 -16z m-77 -51 c-1 -47 -1 -48 -11 -16 -6 18 -8 39 -5 47 11 29 17 17 16
-31z m-174 18 c3 -5 1 -12 -5 -16 -5 -3 -10 1 -10 9 0 18 6 21 15 7z m375 -56
c0 -8 -4 -15 -10 -15 -5 0 -10 7 -10 15 0 8 5 15 10 15 6 0 10 -7 10 -15z
m-25 -94 c3 -5 1 -12 -5 -16 -5 -3 -10 1 -10 9 0 18 6 21 15 7z m-225 -11 c0
-5 -2 -10 -4 -10 -3 0 -8 5 -11 10 -3 6 -1 10 4 10 6 0 11 -4 11 -10z m480 -4
c0 -2 -7 -7 -16 -10 -8 -3 -12 -2 -9 4 6 10 25 14 25 6z m-908 -15 c13 -5 36
-12 51 -16 22 -4 28 -11 25 -28 -2 -18 -9 -22 -39 -21 -64 2 -89 12 -89 38 0
37 12 43 52 27z m868 -11 c0 -5 -8 -10 -17 -10 -15 0 -16 2 -3 10 19 12 20 12
20 0z m65 -35 c0 -22 -8 -33 -32 -48 -33 -19 -73 -16 -73 5 0 6 7 5 16 -3 15
-12 16 -11 10 9 -6 17 -4 22 11 21 10 0 13 -3 5 -6 -6 -2 -10 -9 -7 -13 10
-15 34 1 28 17 -5 12 -2 15 13 11 14 -4 20 0 20 13 0 12 -4 15 -10 9 -6 -6
-17 -10 -25 -10 -11 0 -10 4 5 15 26 20 39 13 39 -20z m-448 -7 c-3 -7 -5 -2
-5 12 0 14 2 19 5 13 2 -7 2 -19 0 -25z m93 12 c0 -5 -2 -10 -4 -10 -3 0 -8 5
-11 10 -3 6 -1 10 4 10 6 0 11 -4 11 -10z m270 -13 c-14 -8 -27 -12 -30 -10
-7 6 23 23 40 23 8 0 4 -6 -10 -13z m-53 -39 c-3 -8 -6 -5 -6 6 -1 11 2 17 5
13 3 -3 4 -12 1 -19z m-791 -9 c31 -8 44 -17 44 -29 0 -13 -7 -17 -32 -15 -52
4 -78 16 -78 36 0 22 6 23 66 8z m948 -4 c-4 -8 -12 -15 -20 -15 -7 0 -19 -9
-27 -20 -9 -13 -20 -18 -31 -14 -20 8 -21 24 -1 24 8 0 29 9 47 20 40 24 39
24 32 5z"/>
<path d="M1460 2975 c-6 -15 -8 -30 -6 -33 3 -3 10 8 16 23 6 15 8 30 6 33 -3
3 -10 -8 -16 -23z"/>
<path d="M2497 2974 c-4 -4 -7 -13 -7 -20 0 -11 -32 -86 -58 -136 -2 -5 6 -8
17 -8 29 0 27 -26 -9 -96 -35 -69 -34 -64 -15 -64 21 0 18 -27 -10 -85 -31
-62 -31 -69 0 -61 24 6 24 6 11 -31 -8 -21 -22 -55 -32 -76 -15 -31 -16 -40
-5 -46 11 -7 10 -18 -5 -62 -24 -68 -23 -74 1 -74 13 0 21 -8 23 -23 3 -17 9
-22 25 -20 12 2 22 10 22 18 0 10 8 14 23 12 25 -4 26 -3 12 33 -5 14 -12 42
-14 62 -4 31 -3 34 16 30 17 -5 19 -2 14 16 -4 12 -9 51 -13 86 -6 62 -6 63
15 52 31 -17 32 -15 16 32 -8 23 -16 65 -17 92 -2 44 1 50 18 51 11 1 23 2 27
3 3 0 -5 31 -18 67 -29 80 -30 96 -8 87 14 -5 16 -2 10 23 -5 16 -13 55 -20
87 -7 32 -15 55 -19 51z"/>
<path d="M1320 2812 c0 -17 47 -109 60 -117 15 -9 12 1 -15 53 -33 64 -45 80
-45 64z"/>
<path d="M1322 2653 c22 -52 38 -76 45 -69 7 7 -46 116 -56 116 -6 0 -1 -21
11 -47z"/>
<path d="M1300 2640 c0 -8 46 -111 57 -129 2 -2 6 -1 9 2 4 4 -1 18 -10 32 -9
14 -14 25 -11 25 3 0 -4 18 -15 40 -20 39 -30 49 -30 30z"/>
<path d="M1523 2575 c-35 -57 -38 -65 -23 -65 13 0 62 87 58 104 -2 8 -17 -9
-35 -39z"/>
<path d="M2984 2578 c-204 -16 -354 -106 -357 -213 -1 -44 17 -77 55 -99 l30
-18 -41 -42 c-88 -90 -117 -226 -71 -334 53 -124 174 -173 337 -137 88 19 237
86 247 111 12 31 -5 32 -52 4 -105 -66 -287 -87 -376 -45 -93 45 -110 171 -36
273 43 59 103 91 186 99 73 6 134 28 134 47 -1 19 -53 73 -78 81 -13 4 -61 1
-107 -6 -77 -11 -86 -11 -117 8 -45 26 -49 63 -11 91 55 39 130 54 301 59 89
3 162 9 162 13 0 4 -7 13 -15 20 -9 7 -14 19 -11 27 3 8 2 11 -4 8 -5 -3 -16
8 -25 25 -8 16 -19 30 -23 31 -4 0 -14 2 -22 3 -8 1 -56 -1 -106 -6z"/>
<path d="M1375 2550 c3 -5 8 -10 11 -10 2 0 4 5 4 10 0 6 -5 10 -11 10 -5 0
-7 -4 -4 -10z"/>
<path d="M1316 2525 c8 -38 22 -65 33 -65 13 0 1 43 -20 70 l-20 25 7 -30z"/>
<path d="M3208 2455 c-3 -4 -68 -8 -144 -11 -186 -6 -246 -13 -237 -26 4 -8 0
-9 -11 -5 -32 13 -116 -48 -101 -73 7 -12 61 38 57 53 -1 5 2 6 7 3 5 -3 35 0
68 8 32 8 130 17 218 21 88 4 162 9 164 11 3 2 0 9 -5 14 -6 6 -13 8 -16 5z"/>
<path d="M1361 2440 c0 -16 22 -50 33 -50 11 0 6 14 -14 40 -13 16 -20 20 -19
10z"/>
<path d="M1342 2418 c2 -16 6 -24 11 -19 5 5 5 17 -2 28 -9 16 -10 15 -9 -9z"/>
<path d="M3695 2360 c-10 -16 15 -79 36 -90 10 -6 70 -16 132 -22 61 -6 113
-12 115 -14 2 -1 -12 -35 -32 -76 -50 -104 -88 -244 -80 -291 10 -60 83 -94
141 -64 43 23 54 40 47 75 l-6 32 -30 -25 c-38 -32 -64 -32 -72 -1 -7 30 -3
40 89 201 l74 130 50 -3 c41 -3 50 0 55 15 3 10 18 26 33 34 29 19 26 21 -50
34 -36 6 -37 7 -23 27 22 31 -1 48 -62 48 -42 0 -53 -4 -69 -25 l-18 -25 -159
25 c-187 29 -163 27 -171 15z"/>
<path d="M4570 2340 c0 -10 9 -21 19 -25 25 -7 33 -31 17 -44 -24 -20 -204
-22 -191 -2 2 4 -1 13 -7 21 -8 12 -9 12 -4 -2 3 -10 2 -18 -2 -18 -4 0 -9
-10 -9 -22 -2 -19 0 -20 8 -8 8 11 9 7 5 -17 l-5 -33 67 0 c37 1 85 7 106 15
22 8 44 11 49 8 6 -3 7 -1 4 4 -4 6 2 18 13 28 36 32 16 84 -40 103 -26 10
-30 9 -30 -8z"/>
<path d="M4185 2320 c-3 -5 3 -10 14 -10 12 0 21 5 21 10 0 6 -6 10 -14 10 -8
0 -18 -4 -21 -10z"/>
<path d="M4357 2307 c-3 -8 -27 -22 -54 -32 -26 -10 -56 -25 -65 -33 -22 -19
-24 -68 -2 -76 24 -9 73 -7 93 4 23 12 51 79 51 120 0 31 -14 41 -23 17z"/>
<path d="M4580 2300 c0 -5 5 -10 11 -10 5 0 7 5 4 10 -3 6 -8 10 -11 10 -2 0
-4 -4 -4 -10z"/>
<path d="M398 2293 c7 -3 16 -2 19 1 4 3 -2 6 -13 5 -11 0 -14 -3 -6 -6z"/>
<path d="M4672 2265 c3 -13 2 -22 -2 -20 -4 3 -13 -2 -20 -10 -7 -8 -9 -15 -4
-15 14 -1 -24 -21 -49 -26 -87 -18 -125 -24 -162 -24 -40 0 -43 2 -40 25 3 31
-8 32 -24 2 -7 -13 -25 -31 -41 -40 -22 -14 -27 -23 -25 -49 1 -18 7 -34 14
-36 7 -2 9 6 5 25 -5 24 -1 30 25 41 19 9 28 18 24 25 -4 7 1 6 10 -2 13 -11
37 -12 102 -7 102 8 141 20 178 54 27 26 38 82 16 82 -7 0 -9 -10 -7 -25z"/>
<path d="M3260 2213 c-17 -26 -30 -55 -30 -65 0 -10 20 -49 45 -86 42 -62 44
-67 24 -70 -15 -3 -30 -23 -51 -67 -32 -70 -39 -138 -16 -162 13 -13 20 -4 58
71 23 47 45 86 49 86 3 0 15 -16 26 -36 11 -20 30 -43 42 -51 13 -9 21 -18 18
-22 -6 -11 76 3 101 17 36 19 46 39 39 74 -7 30 -8 31 -21 12 -25 -37 -34 -43
-49 -38 -9 4 -14 14 -13 23 2 9 -2 15 -9 14 -7 -2 -24 18 -39 43 l-26 45 76
78 c42 43 76 83 76 88 0 5 -29 15 -65 22 -73 15 -85 10 -105 -39 -7 -17 -15
-30 -19 -30 -4 0 -17 32 -30 70 -14 45 -27 70 -37 70 -8 0 -28 -21 -44 -47z"/>
<path d="M3745 2228 c-95 -33 -140 -76 -169 -161 -19 -58 -20 -109 -1 -162 10
-28 11 -41 3 -46 -6 -4 -8 -11 -4 -17 3 -5 -8 -15 -24 -21 -17 -5 -30 -14 -30
-20 0 -5 -9 -7 -20 -4 -14 4 -20 0 -20 -12 0 -12 5 -15 18 -10 9 4 25 8 36 11
26 5 58 35 52 50 -9 22 7 24 30 3 29 -27 86 -40 129 -28 36 10 105 72 105 94
0 7 11 52 25 100 l26 88 -27 53 c-15 30 -35 56 -46 59 -10 4 -18 11 -18 17 0
6 9 7 23 3 39 -13 130 -18 123 -7 -4 6 -14 10 -24 10 -9 -1 -48 1 -87 5 -40 3
-83 1 -100 -5z m9 -165 c-5 -41 -2 -53 20 -86 l26 -38 -20 -29 c-35 -49 -103
-51 -121 -3 -25 67 3 157 59 188 40 21 43 19 36 -32z m66 -57 c0 -3 -4 -8 -10
-11 -5 -3 -10 -1 -10 4 0 6 5 11 10 11 6 0 10 -2 10 -4z"/>
<path d="M3719 2083 c-1 -5 -1 -12 0 -16 1 -5 -3 -6 -9 -2 -15 9 -50 -56 -50
-95 1 -19 7 -46 15 -60 17 -30 18 -26 6 17 -7 25 -5 40 10 67 22 42 24 50 7
40 -8 -4 -10 -3 -5 2 5 5 12 9 15 9 15 0 32 17 32 31 0 14 -19 20 -21 7z"/>
<path d="M3057 2207 c-7 -18 -55 -32 -144 -42 -35 -4 -60 -11 -57 -16 3 -5 -2
-6 -10 -3 -27 10 -116 -53 -116 -83 0 -7 -4 -13 -8 -13 -15 0 -32 -50 -32 -96
0 -42 22 -114 35 -114 3 0 1 9 -5 19 -13 26 -13 117 1 143 9 16 8 19 -3 13 -7
-4 -3 2 10 14 12 12 20 26 18 30 -3 5 6 13 20 20 19 8 24 16 19 29 -5 13 -4
14 6 5 10 -10 16 -10 29 2 9 9 54 20 101 26 106 14 159 36 149 63 -6 17 -7 17
-13 3z"/>
<path d="M3351 2213 c-1 -18 19 -67 25 -61 3 3 -2 21 -10 39 -8 19 -15 29 -15
22z"/>
<path d="M4094 2160 c-14 -22 -24 -46 -21 -55 4 -8 1 -14 -6 -12 -7 1 -11 -6
-11 -15 1 -10 -1 -16 -5 -14 -4 3 -16 -12 -26 -32 -11 -20 -28 -50 -39 -67
-12 -16 -22 -43 -24 -60 -2 -29 -2 -29 13 -10 9 11 14 28 12 37 -3 12 0 15 11
11 11 -5 14 -2 9 11 -4 10 -3 15 3 11 13 -8 43 62 34 77 -4 6 -3 8 4 4 16 -10
63 79 48 94 -8 8 -6 9 8 4 16 -6 18 -4 13 10 -4 9 -3 15 2 12 5 -3 11 0 14 7
3 9 17 12 39 10 25 -3 29 -2 18 6 -33 23 -69 13 -96 -29z"/>
<path d="M3577 2159 c-9 -6 -15 -14 -12 -20 4 -5 -5 -14 -19 -20 -14 -7 -28
-21 -32 -31 -3 -11 -8 -17 -11 -15 -6 6 -73 -67 -73 -80 0 -5 7 -18 15 -29 14
-19 14 -19 9 2 -4 15 4 30 30 54 19 19 33 37 30 42 -3 4 -2 8 3 8 13 0 62 45
65 61 2 8 7 17 13 21 16 12 1 17 -18 7z m-84 -114 c-3 -9 -8 -14 -10 -11 -3 3
-2 9 2 15 9 16 15 13 8 -4z m-23 -19 c0 -2 -8 -10 -17 -17 -16 -13 -17 -12 -4
4 13 16 21 21 21 13z"/>
<path d="M2418 2153 c7 -3 16 -2 19 1 4 3 -2 6 -13 5 -11 0 -14 -3 -6 -6z"/>
<path d="M4132 2093 c-16 -27 -40 -76 -52 -110 -26 -72 -22 -135 11 -177 45
-57 161 -15 151 54 l-4 31 -29 -27 c-40 -38 -64 -27 -55 26 4 29 23 61 68 114
34 41 66 72 72 69 5 -4 -1 -14 -13 -24 -12 -10 -17 -20 -11 -24 5 -3 10 -1 10
5 0 6 4 9 9 6 5 -3 14 0 20 8 9 10 8 16 -4 26 -8 7 -12 16 -9 21 3 5 0 18 -6
29 -9 17 -21 20 -69 20 l-59 0 -30 -47z"/>
<path d="M2408 2123 c6 -2 18 -2 25 0 6 3 1 5 -13 5 -14 0 -19 -2 -12 -5z"/>
<path d="M4445 2111 c-107 -26 -189 -126 -189 -231 -1 -96 45 -147 141 -158
60 -7 150 37 169 84 7 18 18 36 24 39 6 4 8 11 4 16 -4 6 -15 2 -28 -10 -11
-11 -47 -32 -79 -46 -97 -45 -157 -18 -157 70 0 33 6 47 33 73 37 36 99 64
121 56 19 -7 17 -81 -2 -89 -7 -3 -10 -9 -7 -15 17 -28 106 62 120 122 16 63
-63 110 -150 89z"/>
<path d="M2400 2090 c0 -5 9 -10 20 -10 11 0 20 5 20 10 0 6 -9 10 -20 10 -11
0 -20 -4 -20 -10z"/>
<path d="M2400 2060 c0 -5 6 -10 14 -10 8 0 18 5 21 10 3 6 -3 10 -14 10 -12
0 -21 -4 -21 -10z"/>
<path d="M4606 2024 c-12 -77 -15 -87 -26 -98 -9 -8 -9 -4 0 14 11 20 5 17
-28 -14 -23 -22 -39 -43 -36 -48 3 -4 -2 -5 -10 -2 -9 3 -16 1 -16 -5 0 -17
22 -13 55 9 26 18 27 25 2 21 -5 -1 -6 3 -3 8 3 5 14 7 25 4 14 -4 23 6 40 39
22 47 26 75 12 97 -6 9 -10 2 -15 -25z"/>
<path d="M2385 2028 c-2 -7 -6 -53 -9 -103 -3 -49 -12 -141 -21 -204 -9 -62
-15 -114 -13 -116 2 -1 12 -5 23 -9 20 -6 22 2 39 157 9 89 22 186 27 216 5
29 6 57 3 62 -8 13 -44 11 -49 -3z"/>
<path d="M4243 2013 c4 -3 -3 -13 -14 -21 -17 -12 -18 -16 -8 -23 11 -7 10 -9
-4 -9 -10 0 -15 -4 -12 -10 3 -5 -2 -10 -12 -10 -15 0 -16 -2 -3 -10 13 -9 13
-10 0 -10 -11 0 -16 -11 -17 -37 l-1 -38 23 51 c12 28 30 54 40 58 10 3 15 9
11 13 -3 3 4 13 15 21 17 12 18 16 8 23 -16 10 -35 12 -26 2z"/>
<path d="M4409 1967 c-19 -12 -33 -26 -31 -30 2 -5 -7 -16 -19 -26 -18 -15
-21 -24 -15 -54 4 -20 11 -39 15 -42 5 -2 5 11 1 31 -8 32 -5 38 33 75 23 21
47 39 54 39 7 0 13 4 13 10 0 5 7 6 17 3 11 -4 14 -3 9 5 -11 18 -40 14 -77
-11z m11 -11 c0 -2 -8 -10 -17 -17 -16 -13 -17 -12 -4 4 13 16 21 21 21 13z"/>
<path d="M3306 1836 c-16 -30 -29 -61 -29 -70 0 -9 -9 -19 -20 -22 -16 -5 -17
-8 -6 -15 8 -5 19 -9 26 -9 14 0 35 68 26 83 -3 6 -1 7 4 4 10 -7 43 49 43 72
0 24 -16 8 -44 -43z"/>
<path d="M3820 1842 c-45 -48 -115 -66 -161 -42 -10 6 -19 8 -19 5 0 -11 68
-35 97 -35 36 0 96 36 87 52 -4 6 -3 8 3 5 14 -9 34 16 25 30 -5 8 -16 3 -32
-15z"/>
<path d="M3190 1825 c-5 -14 -12 -25 -15 -25 -4 0 -3 5 1 11 4 7 -8 3 -26 -7
-18 -10 -34 -24 -37 -31 -3 -6 -12 -9 -20 -6 -9 4 -14 2 -11 -3 4 -5 -5 -10
-19 -11 -14 0 -28 -5 -32 -10 -17 -23 -230 -39 -291 -21 -14 4 -9 1 10 -8 72
-34 204 -28 299 12 101 42 145 70 152 97 9 34 2 35 -11 2z"/>
<path d="M4596 1829 c-9 -11 -16 -22 -16 -25 0 -12 -58 -72 -64 -67 -3 4 -6 0
-6 -7 0 -7 -3 -10 -6 -7 -4 3 -16 1 -28 -5 -24 -13 -111 -11 -138 3 -10 5 -18
7 -18 5 0 -3 13 -12 30 -21 34 -17 152 -15 158 4 2 6 7 9 12 6 5 -3 16 2 24
11 9 8 16 12 16 8 0 -4 9 2 21 14 11 12 18 26 15 31 -3 5 6 20 19 34 19 18 22
26 12 30 -8 3 -21 -3 -31 -14z"/>
<path d="M4039 1801 c-27 -21 -27 -21 -75 -21 -21 0 -33 -4 -29 -10 8 -13 66
-13 98 -1 22 9 43 38 34 48 -2 2 -15 -5 -28 -16z"/>
<path d="M4237 1796 c-7 -18 -82 -40 -106 -31 -13 5 -14 4 -3 -6 17 -18 81
-16 93 2 5 7 9 10 9 6 0 -5 7 -1 16 8 11 11 13 20 7 26 -7 7 -12 5 -16 -5z"/>
<path d="M3447 1789 c7 -7 15 -10 18 -7 3 3 -2 9 -12 12 -14 6 -15 5 -6 -5z"/>
<path d="M2270 1562 c-44 -47 -72 -90 -68 -103 4 -12 96 95 106 122 7 18 -13
8 -38 -19z"/>
<path d="M2342 1568 c3 -7 13 -15 22 -16 12 -3 17 1 14 10 -3 7 -13 15 -22 16
-12 3 -17 -1 -14 -10z"/>
<path d="M2400 1570 c0 -13 25 -38 68 -68 37 -27 42 -17 11 22 -23 30 -79 62
-79 46z"/>
<path d="M2282 1509 c-17 -25 -34 -59 -38 -75 -7 -29 -7 -29 14 -10 26 22 65
101 60 118 -3 7 -18 -8 -36 -33z"/>
<path d="M3934 1530 c-5 -5 -36 -10 -68 -12 -33 -2 -61 -8 -63 -14 -2 -7 8 -9
28 -6 28 4 30 2 25 -16 -13 -40 -23 -122 -15 -122 8 0 11 9 29 88 10 44 15 52
35 52 12 0 28 7 35 15 14 17 9 30 -6 15z"/>
<path d="M2335 1520 c-9 -15 3 -30 25 -30 13 0 17 5 13 20 -6 21 -28 27 -38
10z"/>
<path d="M2708 1517 c10 -11 9 -27 -3 -78 -8 -35 -15 -68 -14 -74 0 -21 29 59
29 81 0 34 14 30 28 -9 7 -19 23 -44 37 -57 l24 -23 12 29 c6 16 13 53 16 82
5 40 3 52 -8 52 -11 0 -13 -14 -11 -57 2 -53 -13 -102 -24 -78 -3 6 -17 39
-33 75 -18 42 -34 66 -47 69 -15 3 -16 1 -6 -12z"/>
<path d="M3458 1517 c10 -11 9 -27 -3 -78 -17 -76 -18 -79 -6 -79 5 0 13 25
16 55 4 30 10 55 14 55 4 0 12 -15 19 -32 7 -18 22 -44 33 -57 17 -21 22 -22
30 -10 27 43 39 149 16 149 -9 0 -12 -11 -9 -35 5 -42 -5 -105 -17 -105 -5 0
-22 33 -38 72 -20 50 -35 74 -48 77 -16 3 -17 1 -7 -12z"/>
<path d="M2880 1510 c0 -5 9 -10 21 -10 15 0 19 -4 15 -16 -3 -9 -9 -33 -12
-55 -10 -63 11 -45 24 21 l13 60 32 -5 c17 -4 33 -7 34 -9 1 -1 -3 -18 -9 -38
-11 -36 -5 -88 10 -88 4 0 6 15 4 33 -2 18 3 51 12 71 9 21 16 40 16 42 0 2
-36 4 -80 4 -47 0 -80 -4 -80 -10z"/>
<path d="M3204 1486 c-43 -43 -46 -86 -8 -111 14 -9 28 -15 30 -12 2 2 -7 10
-20 17 -21 11 -24 18 -19 44 9 49 41 78 82 74 21 -2 36 2 39 10 2 8 -8 12 -33
12 -29 0 -45 -8 -71 -34z"/>
<path d="M3335 1510 c3 -5 13 -10 21 -10 10 0 13 -6 10 -17 -3 -10 -9 -37 -15
-61 -7 -36 -7 -41 4 -32 8 7 19 36 25 65 7 36 17 55 28 58 9 3 -5 5 -31 6 -30
1 -46 -3 -42 -9z"/>
<path d="M3625 1510 c3 -5 13 -10 20 -10 8 0 12 -6 10 -12 -10 -29 -22 -129
-14 -121 5 5 16 39 25 75 11 44 22 69 33 71 9 3 -6 5 -32 6 -30 1 -46 -3 -42
-9z"/>
<path d="M4035 1510 c-3 -5 -15 -10 -25 -10 -23 0 -60 -46 -60 -74 1 -26 19
-50 45 -60 18 -7 18 -5 -2 14 -29 26 -30 71 -3 95 20 18 20 17 21 -11 1 -21 3
-24 6 -9 7 29 23 45 43 45 35 0 41 -64 9 -104 -23 -30 -12 -36 13 -7 37 43 43
86 17 118 -13 15 -55 17 -64 3z"/>
<path d="M4143 1506 c15 -12 16 -18 8 -35 -16 -29 -13 -66 7 -91 l18 -22 30
27 29 27 -29 -21 c-23 -17 -31 -19 -37 -9 -14 25 -12 53 4 92 9 21 17 40 17
42 0 2 -15 4 -32 4 -30 -1 -32 -2 -15 -14z"/>
<path d="M4328 1504 c-16 -8 -28 -22 -28 -31 0 -14 3 -14 23 4 28 25 65 35 88
22 23 -12 14 -38 -18 -50 -24 -9 -24 -10 -7 -37 9 -16 26 -34 37 -41 19 -13
19 -12 -1 14 -28 35 -28 43 3 71 21 20 24 27 15 44 -13 24 -71 27 -112 4z"/>
<path d="M4523 1508 c-23 -30 -21 -39 17 -83 46 -53 55 -36 10 20 -16 21 -30
39 -30 41 0 2 9 8 21 14 15 9 24 8 35 -1 11 -9 14 -8 14 5 0 20 -53 22 -67 4z"/>
<path d="M3103 1493 c-4 -9 -7 -31 -7 -49 -1 -18 -3 -30 -5 -28 -6 6 -41 -27
-41 -40 0 -6 7 0 16 13 15 21 18 21 26 7 5 -9 6 -21 2 -28 -4 -6 -3 -8 3 -5 5
3 10 24 11 46 1 21 6 51 12 66 12 33 12 35 0 35 -6 0 -14 -8 -17 -17z"/>
<path d="M4249 1483 c-12 -30 -14 -97 -4 -113 3 -5 11 -10 18 -10 8 0 8 3 0
11 -9 9 -3 71 13 122 9 28 -16 19 -27 -10z"/>
<path d="M2416 1478 c18 -32 56 -78 65 -78 16 0 10 36 -12 64 -21 26 -67 38
-53 14z"/>
<path d="M4335 1433 c-4 -31 -9 -63 -12 -72 -5 -13 -3 -14 8 -3 7 7 14 23 14
35 1 13 4 27 7 33 3 5 8 21 12 37 5 20 3 27 -8 27 -9 0 -16 -18 -21 -57z"/>
<path d="M2325 1470 c-8 -14 3 -30 21 -30 16 0 16 2 8 24 -7 18 -20 21 -29 6z"/>
<path d="M2395 1438 c14 -66 65 -127 65 -78 0 20 -54 110 -66 110 -3 0 -3 -15
1 -32z"/>
<path d="M3270 1443 c-40 -7 -44 -20 -5 -19 21 1 35 6 35 14 0 6 -1 11 -2 11
-2 -1 -14 -4 -28 -6z"/>
<path d="M3250 1379 c-12 -8 -10 -9 9 -4 17 5 22 4 16 -5 -5 -9 -4 -11 4 -6 6
4 9 12 6 17 -8 12 -16 11 -35 -2z"/>
<path d="M4480 1381 c0 -14 38 -34 53 -27 7 2 5 5 -5 5 -9 1 -24 8 -32 17 -9
8 -16 11 -16 5z"/>
</g>
</svg>
